<svg id="logo_fiinal" data-name="logo fiinal" xmlns="http://www.w3.org/2000/svg" viewBox="0 0 569 569"><defs><style>.cls-1{fill:#3a3b3c;}.cls-2,.cls-3,.cls-4{fill:none;stroke:#fff;stroke-linecap:round;}.cls-2,.cls-4{stroke-miterlimit:10;}.cls-2,.cls-3{stroke-width:10px;}.cls-3{stroke-linejoin:round;}.cls-4{stroke-width:6px;}</style></defs><rect class="cls-1" width="569" height="569" rx="198.51648"/><path id="dog" class="cls-2" d="M933.784,649.28505a228.877,228.877,0,0,1-23-20c-11.02277-10.95245-11.18225-13.34137-18-20-21.03986-20.54871-50.447-28.00171-52.5-28.5-8.49658-2.06232-20.73645-4.66071-31.16541-14.9035a21.71724,21.71724,0,0,1-3.27539-4.18c-9.78723-15.8637-1.90594-36.07763-2.5592-43.9165-1-12-3-29,18-20s54,8,54,8,35.50549-19.05792,72.25275-10.529c0,0,26.24725-16.971,45.24725-8.971,29.3952,12.37695,42.46814,51.55914,33.21533,79.3833-1.752,5.26837-6.54992,19.69617-20.21533,25.6167-14.67334,6.35724-34.21887.5874-49-15" transform="translate(-713 -277)"/><path id="cat" class="cls-3" d="M1045.784,651.28505c15.03906-6.09271,24.25916-13.819,30-20,.00012-.00006,19.1958-20.6676,31-23l.0105-.00208c.03564-.00695.15417-.03045.30847-.06176.835-.16925,2.95923-.61829,5.6698-1.37543a75.12808,75.12808,0,0,0,28.01123-14.56073,58.08219,58.08219,0,0,0,7-7c6.322-4.39752,14.433-11.56616,15-21,.53479-8.89758-6.079-12.52795-15-28-11.8186-20.49744-5.51343-23.322-16-38-9.66638-13.53-17.93249-15.20111-21-28a40.56916,40.56916,0,0,1,0-18c3.18066-15.17157,13.38806-24.1131,17-27-4.10266,2.90686-10.28162,7.16241-18,12-17.57056,11.01257-21.41541,11.43884-27,16-18.46851,15.08411-21.54456,47.2793-16,50,5.10327,2.50421,23.23132-17.15436,30-40a77.19134,77.19134,0,0,0,2-34,89.88175,89.88175,0,0,1-17,19c-21.14246,17.64651-39.61145,15.89413-61,35a92.35969,92.35969,0,0,0-12,13" transform="translate(-713 -277)"/><g id="bunny"><path class="cls-3" d="M990.78017,485.54351s.50387-175.75846,30.50387-176.75846,33.00234,105.067,3.00117,171.53349" transform="translate(-713 -277)"/><path class="cls-3" d="M962.784,370.28505s-20.37622,42.60486-39.78021,60.85788c-5.28968,4.97592-10.50708,8.14212-15.21979,8.14212a11.06027,11.06027,0,0,1-5.5481-1.38022c-8.96661-5.4378-4.1939-28.09695-3.4519-31.61978,2.20538-10.47043,5.3595-25.445,19-36,11.51154-8.90759,31.3114-15.302,42-7,7.82813,6.08023,7.99506,17.88867,8,26,.01324,21.65726-.55145,54.68408-3.38727,98.00848q-3.25075,1.4112-6.61273,2.99152-5.23838,2.46688-10,5c-2.7309-5.004-5.41833-10.33618-8-16a250.695,250.695,0,0,1-16-47" transform="translate(-713 -277)"/></g><g id="Mouse"><path class="cls-4" d="M1017.784,544.28505s24-15,99-12" transform="translate(-713 -277)"/><path class="cls-4" d="M1017.784,556.70813s41.08791-6.06643,66.544-3.24475" transform="translate(-713 -277)"/><path class="cls-4" d="M1013.784,569.28505s52,2,77,9" transform="translate(-713 -277)"/><path class="cls-4" d="M958.784,544.28505s-24-15-99-12" transform="translate(-713 -277)"/><path class="cls-4" d="M958.784,556.70813s-41.08791-6.06643-66.544-3.24475" transform="translate(-713 -277)"/><path class="cls-4" d="M962.784,569.28505s-52,2-77,9" transform="translate(-713 -277)"/></g><g id="parrot"><path class="cls-2" d="M983.784,663.28505c-.65607,39.28638-1.57062,100.20227-1,108.32648.04254.60553.09058,1.18194.09058,1.18206a93.28841,93.28841,0,0,0,2.90942,16.36457c.66693,2.46063,6.73193,24.43225,12,24.12658,6.73413-.39074,10.16058-37.37561,12-58.12323a846.70445,846.70445,0,0,0,3-94.31317" transform="translate(-713 -277)"/><path class="cls-2" d="M966.784,660.84836c-5.02667,64.73991-2.85071,100.74751-1,118.4398.90991,8.69842,4.60437,27.12532,9.95844,27.41662,3.9953.21734,7.70465-9.79247,10.04156-17.54663" transform="translate(-713 -277)"/><path class="cls-2" d="M1012.784,668.525q32.83613,114.06606,19.992,120.63313-6.19052,3.16368-22.992-18.64331" transform="translate(-713 -277)"/><path class="cls-2" d="M1012.784,660.84836c33.52515,54.3578,64.07849,108.20322,56.96655,114.55168a2.94589,2.94589,0,0,1-1.32861.59813c-3.99634,1.071-14.38513,1.35543-34.63794-23.03" transform="translate(-713 -277)"/><path class="cls-2" d="M965.784,664.13836Q935.433,780.433,949.008,786.96482q4.95822,2.38636,15.77606-9.87" transform="translate(-713 -277)"/><path class="cls-2" d="M1022.784,659.7517q76.36908,96.59227,68.80786,105.27982-3.64672,4.18749-26.80786-12.06331" transform="translate(-713 -277)"/><path class="cls-2" d="M1033.784,656.4617c64.50378,62.85341,77.82507,82.46519,74.97192,86.77167a3.55009,3.55009,0,0,1-1.12341.96152c-8.45447,5.46525-21.25781-3.503-28.84851-9.87" transform="translate(-713 -277)"/><path class="cls-2" d="M1045.784,650.97838c56.52393,48.04341,68.16907,62.76726,66.22034,66.12392a2.66628,2.66628,0,0,1-.80713.77263c-6.26465,4.596-16.15906-1.04084-22.41321-5.48332" transform="translate(-713 -277)"/><path class="cls-2" d="M961.784,660.84836q-53.92493,101.628-43.0752,110.76315,5.30219,4.46582,26.0752-13.16" transform="translate(-713 -277)"/><path class="cls-2" d="M952.784,658.655q-71.842,96.09147-64.37427,104.18316,4.19138,4.54312,33.37427-18.6433" transform="translate(-713 -277)"/><path class="cls-2" d="M941.784,654.26837c-63.80182,63.94753-75.50494,83.15208-72.50366,87.67556a4.38569,4.38569,0,0,0,1.30639,1.15429c8.37317,5.56345,21.53492-2.88657,29.19727-8.77331" transform="translate(-713 -277)"/><path class="cls-2" d="M933.784,648.78505c-51.78143,50.64732-63.37756,65.45142-61.80768,67.66363a1.36017,1.36017,0,0,0,.39276.32959c4.33448,2.87627,11.2356-1.96127,16.41492-6.58" transform="translate(-713 -277)"/></g></svg>