<svg id="logo_2" data-name="logo 2" xmlns="http://www.w3.org/2000/svg" viewBox="0 0 366.91432 509.50987"><defs><style>.cls-1,.cls-2,.cls-3{fill:none;stroke:#3f3f3f;stroke-linecap:round;}.cls-1,.cls-3{stroke-miterlimit:10;}.cls-1,.cls-2{stroke-width:5px;}.cls-2{stroke-linejoin:round;}.cls-3{stroke-width:4px;}</style></defs><path id="dog" class="cls-1" d="M924.5,653.5a228.877,228.877,0,0,1-23-20c-11.02277-10.95245-11.18225-13.34137-18-20-21.03986-20.54871-50.447-28.00171-52.5-28.5-8.49658-2.06232-20.73645-4.66071-31.16541-14.9035a21.71724,21.71724,0,0,1-3.27539-4.18C786.772,550.0528,794.65326,529.83887,794,522c-1-12-3-29,18-20s54,8,54,8,35.50549-19.05792,72.25275-10.529c0,0,26.24725-16.971,45.24725-8.971,29.3952,12.377,42.46814,51.55914,33.21533,79.3833-1.75195,5.26837-6.54992,19.69617-20.21533,25.6167-14.67334,6.35724-34.21887.5874-49-15" transform="translate(-789.11594 -310.49298)"/><path id="cat" class="cls-2" d="M1036.5,655.5c15.03906-6.09271,24.25916-13.819,30-20,.00012-.00006,19.1958-20.6676,31-23l.0105-.00208c.03564-.007.15417-.03045.30847-.06176.835-.16925,2.95923-.61829,5.6698-1.37543A75.12808,75.12808,0,0,0,1131.5,596.5a58.08219,58.08219,0,0,0,7-7c6.322-4.39752,14.433-11.56616,15-21,.53479-8.89758-6.079-12.528-15-28-11.8186-20.49744-5.51343-23.322-16-38-9.66638-13.53-17.9325-15.20111-21-28a40.56916,40.56916,0,0,1,0-18c3.18066-15.17157,13.38806-24.1131,17-27-4.10266,2.90686-10.28162,7.16241-18,12-17.57056,11.01257-21.41541,11.43884-27,16-18.46851,15.08411-21.54456,47.2793-16,50,5.10327,2.50421,23.23132-17.15436,30-40a77.19134,77.19134,0,0,0,2-34,89.88175,89.88175,0,0,1-17,19c-21.14246,17.64651-39.61145,15.89413-61,35a92.35969,92.35969,0,0,0-12,13" transform="translate(-789.11594 -310.49298)"/><g id="bunny"><path class="cls-2" d="M981.49613,489.75846S982,314,1012,313s33.00234,105.067,3.00117,171.53349" transform="translate(-789.11594 -310.49298)"/><path class="cls-2" d="M953.5,374.5s-20.37622,42.60486-39.78021,60.85788C908.43011,440.3338,903.21271,443.5,898.5,443.5a11.06027,11.06027,0,0,1-5.5481-1.38022C883.98529,436.682,888.758,414.02283,889.5,410.5c2.20538-10.47043,5.3595-25.445,19-36,11.51154-8.90759,31.3114-15.302,42-7,7.82812,6.08023,7.99506,17.88867,8,26,.01324,21.65726-.55145,54.68408-3.38727,98.00848Q951.862,492.91968,948.5,494.5q-5.23838,2.46688-10,5c-2.7309-5.004-5.41833-10.33618-8-16a250.695,250.695,0,0,1-16-47" transform="translate(-789.11594 -310.49298)"/></g><g id="Mouse"><path class="cls-3" d="M1008.5,548.5s24-15,99-12" transform="translate(-789.11594 -310.49298)"/><path class="cls-3" d="M1008.5,560.92308s41.08791-6.06643,66.544-3.24475" transform="translate(-789.11594 -310.49298)"/><path class="cls-3" d="M1004.5,573.5s52,2,77,9" transform="translate(-789.11594 -310.49298)"/><path class="cls-3" d="M949.5,548.5s-24-15-99-12" transform="translate(-789.11594 -310.49298)"/><path class="cls-3" d="M949.5,560.92308s-41.08791-6.06643-66.544-3.24475" transform="translate(-789.11594 -310.49298)"/><path class="cls-3" d="M953.5,573.5s-52,2-77,9" transform="translate(-789.11594 -310.49298)"/></g><g id="parrot"><path class="cls-1" d="M974.5,667.5c-.65607,39.28638-1.57062,100.20227-1,108.32648.04254.60553.09058,1.18194.09058,1.18206A93.28841,93.28841,0,0,0,976.5,793.37311c.66693,2.46063,6.73193,24.43225,12,24.12658,6.73413-.39074,10.16058-37.37561,12-58.12323a846.70445,846.70445,0,0,0,3-94.31317" transform="translate(-789.11594 -310.49298)"/><path class="cls-1" d="M957.5,665.06331c-5.02667,64.73991-2.85071,100.74751-1,118.4398.90991,8.69842,4.60437,27.12532,9.95844,27.41662,3.9953.21734,7.70465-9.79247,10.04156-17.54663" transform="translate(-789.11594 -310.49298)"/><path class="cls-1" d="M1003.5,672.74q32.83613,114.06606,19.992,120.63313-6.19051,3.16368-22.992-18.64331" transform="translate(-789.11594 -310.49298)"/><path class="cls-1" d="M1003.5,665.06331c33.52515,54.3578,64.07849,108.20322,56.96655,114.55168a2.94589,2.94589,0,0,1-1.32861.59813c-3.99634,1.071-14.38513,1.35543-34.63794-23.03" transform="translate(-789.11594 -310.49298)"/><path class="cls-1" d="M956.5,668.35331q-30.351,116.2946-16.77606,122.82646,4.95822,2.38637,15.77606-9.87" transform="translate(-789.11594 -310.49298)"/><path class="cls-1" d="M1013.5,663.96665q76.36908,96.59228,68.80786,105.27982-3.64672,4.18749-26.80786-12.06331" transform="translate(-789.11594 -310.49298)"/><path class="cls-1" d="M1024.5,660.67665c64.50378,62.85341,77.82507,82.46519,74.97192,86.77167a3.55009,3.55009,0,0,1-1.12341.96152c-8.45447,5.46525-21.25781-3.503-28.84851-9.87" transform="translate(-789.11594 -310.49298)"/><path class="cls-1" d="M1036.5,655.19333c56.52393,48.04341,68.16907,62.76726,66.22034,66.12392a2.66628,2.66628,0,0,1-.80713.77263c-6.26465,4.596-16.15906-1.04084-22.41321-5.48332" transform="translate(-789.11594 -310.49298)"/><path class="cls-1" d="M952.5,665.06331q-53.92492,101.628-43.0752,110.76315,5.30219,4.46582,26.0752-13.16" transform="translate(-789.11594 -310.49298)"/><path class="cls-1" d="M943.5,662.87q-71.842,96.09147-64.37427,104.18316,4.19138,4.54313,33.37427-18.6433" transform="translate(-789.11594 -310.49298)"/><path class="cls-1" d="M932.5,658.48332c-63.80182,63.94753-75.50494,83.15208-72.50366,87.67556a4.38569,4.38569,0,0,0,1.30639,1.15429c8.37317,5.56345,21.53492-2.88657,29.19727-8.77331" transform="translate(-789.11594 -310.49298)"/><path class="cls-1" d="M924.5,653c-51.78143,50.64732-63.37756,65.45142-61.80768,67.66363a1.36017,1.36017,0,0,0,.39276.32959c4.33448,2.87627,11.2356-1.96127,16.41492-6.58" transform="translate(-789.11594 -310.49298)"/></g></svg>