<svg xmlns="http://www.w3.org/2000/svg" xmlns:xlink="http://www.w3.org/1999/xlink" viewBox="0 0 1950 132"><defs><style>.cls-1{fill:#2b2b2b;}.cls-2{fill:#738284;}</style><image id="image" width="200" height="200" xlink:href="../../../header%20idea/tweed.png"/></defs><g id="Laag_2" data-name="Laag 2"><use transform="scale(0.66)" xlink:href="#image"/><use transform="translate(130) scale(0.66)" xlink:href="#image"/><use transform="translate(260) scale(0.66)" xlink:href="#image"/><use transform="translate(390) scale(0.66)" xlink:href="#image"/><use transform="translate(520) scale(0.66)" xlink:href="#image"/><use transform="translate(650) scale(0.66)" xlink:href="#image"/><use transform="translate(780) scale(0.66)" xlink:href="#image"/><use transform="translate(910) scale(0.66)" xlink:href="#image"/><use transform="translate(1040) scale(0.66)" xlink:href="#image"/><use transform="translate(1170) scale(0.66)" xlink:href="#image"/><use transform="translate(1300) scale(0.66)" xlink:href="#image"/><use transform="translate(1428) scale(0.66)" xlink:href="#image"/><use transform="translate(1558) scale(0.66)" xlink:href="#image"/><use transform="translate(1688) scale(0.66)" xlink:href="#image"/><use transform="translate(1818) scale(0.66)" xlink:href="#image"/></g><g id="Laag_3" data-name="Laag 3"><g id="dog"><path class="cls-1" d="M62.743,25.97117c6.03119-.46328,10.42661,6.31748,11.54941,8.04965,4.61479,7.11926,3.12052,14.53948,2.73279,16.46491-.5002,2.484-1.1488,5.47759-3.71837,7.10441a8.12985,8.12985,0,0,1-5.61772.91956c-7.06-1.15165-10.58093-10.16225-11.14071-11.59487-2.04186-5.22549-3.59765-14.64372,1.40707-18.94053A8.61547,8.61547,0,0,1,62.743,25.97117Z"/><path class="cls-1" d="M95.75391,25.00124c-6.048-.10837-10.0377,6.91877-11.05686,8.71387-4.18883,7.37793-2.26147,14.69762-1.76136,16.597.64519,2.45034,1.46842,5.40069,4.12908,6.87383a8.12991,8.12991,0,0,0,5.662.58814c6.9802-1.56418,9.966-10.766,10.44071-12.229,1.73152-5.33636,2.73165-14.82969-2.51672-18.82524A8.61541,8.61541,0,0,0,95.75391,25.00124Z"/><path class="cls-1" d="M113.9356,53.3059c-5.489-.09835-9.10993,6.27927-10.03489,7.90846a19.958,19.958,0,0,0-1.59856,15.06293c.58555,2.22386,1.3327,4.90152,3.74743,6.2385a7.37844,7.37844,0,0,0,5.1387.53377c6.335-1.4196,9.04486-9.77089,9.47569-11.09867,1.57149-4.84313,2.47918-13.459-2.28409-17.08526A7.81917,7.81917,0,0,0,113.9356,53.3059Z"/><path class="cls-1" d="M46.39167,55.29048c5.47374-.42045,9.46289,5.73357,10.48192,7.30564a19.95807,19.95807,0,0,1,2.4802,14.94309c-.454,2.2544-1.04261,4.9713-3.37469,6.44776a7.3784,7.3784,0,0,1-5.09848.83456c-6.40746-1.0452-9.60295-9.223-10.111-10.52317-1.85313-4.74251-3.26512-13.29023,1.277-17.18989A7.81915,7.81915,0,0,1,46.39167,55.29048Z"/><path class="cls-1" d="M81.27241,68.679c6.75241-.07847,11.4274,6.80852,16.20712,13.84978,2.65683,3.91394,7.3071,10.967,6.08331,19.08862-.2715,1.802-.80745,5.051-3.329,6.71662-.50622.33437-2.27135,1.38371-8.285.45318-6.3342-.98011-6.235-2.432-9.60226-2.49659-5.95631-.11436-7.41075,4.40649-13.01083,4.119a11.65524,11.65524,0,0,1-8.09-3.86715c-5.6438-6.85778,1.44414-20.4529,5.72407-26.55341C70.41367,75.08026,74.85224,68.75362,81.27241,68.679Z"/></g><g id="dog-2" data-name="dog"><path class="cls-2" d="M58.743,23.97117c6.03119-.46328,10.42661,6.31748,11.54941,8.04965,4.61479,7.11926,3.12052,14.53948,2.73279,16.46491-.5002,2.484-1.1488,5.47759-3.71837,7.10441a8.12985,8.12985,0,0,1-5.61772.91956c-7.06-1.15165-10.58093-10.16225-11.14071-11.59487-2.04186-5.22549-3.59765-14.64372,1.40707-18.94053A8.61547,8.61547,0,0,1,58.743,23.97117Z"/><path class="cls-2" d="M91.75391,23.00124c-6.048-.10837-10.0377,6.91877-11.05686,8.71387-4.18883,7.37793-2.26147,14.69762-1.76136,16.597.64519,2.45034,1.46842,5.40069,4.12908,6.87383a8.12991,8.12991,0,0,0,5.662.58814c6.9802-1.56418,9.966-10.766,10.44071-12.229,1.73152-5.33636,2.73165-14.82969-2.51672-18.82524A8.61541,8.61541,0,0,0,91.75391,23.00124Z"/><path class="cls-2" d="M109.9356,51.3059c-5.489-.09835-9.10993,6.27927-10.03489,7.90846a19.958,19.958,0,0,0-1.59856,15.06293c.58555,2.22386,1.3327,4.90152,3.74743,6.2385a7.37844,7.37844,0,0,0,5.1387.53377c6.335-1.4196,9.04486-9.77089,9.47569-11.09867,1.57149-4.84313,2.47918-13.459-2.28409-17.08526A7.81917,7.81917,0,0,0,109.9356,51.3059Z"/><path class="cls-2" d="M42.39167,53.29048c5.47374-.42045,9.46289,5.73357,10.48192,7.30564a19.95807,19.95807,0,0,1,2.4802,14.94309c-.454,2.2544-1.04261,4.9713-3.37469,6.44776a7.3784,7.3784,0,0,1-5.09848.83456c-6.40746-1.0452-9.60295-9.223-10.111-10.52317-1.85313-4.74251-3.26512-13.29023,1.277-17.18989A7.81915,7.81915,0,0,1,42.39167,53.29048Z"/><path class="cls-2" d="M77.27241,66.679c6.75241-.07847,11.4274,6.80852,16.20712,13.84978,2.65683,3.91394,7.3071,10.967,6.08331,19.08862-.2715,1.802-.80745,5.051-3.329,6.71662-.50622.33437-2.27135,1.38371-8.285.45318-6.3342-.98011-6.235-2.432-9.60226-2.49659-5.95631-.11436-7.41075,4.40649-13.01083,4.119a11.65524,11.65524,0,0,1-8.09-3.86715c-5.6438-6.85778,1.44414-20.4529,5.72407-26.55341C66.41367,73.08026,70.85224,66.75362,77.27241,66.679Z"/></g><g id="guini_pig" data-name="guini pig"><path class="cls-1" d="M391.17764,81.47939l-3.81821-.83082c.22878.79217.39285,1.37233.56385,1.95044,1.3106,4.43066-1.39734,7.47715-5.9066,6.49526-6.04987-1.31738-10.26958-5.09489-12.99893-10.48735-1.74787-3.45332-.46428-5.88007,3.7581-7.77058-.26606-.677-.55852-1.35505-.80124-2.05051a7.24147,7.24147,0,0,1,1.04221-6.96314,11.073,11.073,0,0,1,11.20124-3.92706,16.65384,16.65384,0,0,0,9.60311-.11307,8.95472,8.95472,0,0,1,9.36617,2.19325c2.66937,2.68167,2.67688,6.14867,1.69142,9.6268-.20379.71927-.5422,1.40039-.85563,2.19281a3.90862,3.90862,0,0,0,.61268.24768c3.71167.76093,5.16386,3.16917,3.75241,6.71552a17.53393,17.53393,0,0,1-11.51374,10.73185,5.42456,5.42456,0,0,1-4.96986-.78364,3.99781,3.99781,0,0,1-1.66816-4.40588C390.46969,83.42,390.81036,82.56752,391.17764,81.47939Z"/><path class="cls-1" d="M388.27664,110.16626a15.68923,15.68923,0,0,1-8.29381-2.72089c-3.99665-2.71406-4.10791-6.72616-.29038-9.63023,1.51917-1.15565,3.164-2.01572,4.477-3.59247,2.11123-2.53522,8.196-2.638,10.31309-.14411a24.96953,24.96953,0,0,0,4.79515,3.81155c2.99451,2.19754,3.13763,5.85226.441,8.43336C397.34109,108.59919,393.55345,110.01834,388.27664,110.16626Z"/><path class="cls-1" d="M381.0851,46.52045a26.8781,26.8781,0,0,1-1.74408,4.78112c-1.021,1.74039-2.562,1.7925-4.13728.53249-3.10755-2.48558-4.52757-8.47209-2.86651-12.0846,1.26093-2.74233,3.69838-3.05333,5.60536-.687A15.60144,15.60144,0,0,1,381.0851,46.52045Z"/><path class="cls-1" d="M393.24921,46.10171c.07518-3.29059.49279-5.73149,2.19836-7.75028,1.769-2.094,3.89941-1.86346,5.25911.52437,1.79864,3.15865,1.332,8.33338-1.0293,11.415-1.76451,2.30276-4.08413,2.12641-5.33747-.544A20.863,20.863,0,0,1,393.24921,46.10171Z"/><path class="cls-1" d="M357.35055,61.511a14.89142,14.89142,0,0,1,.42081-2.109,2.5609,2.5609,0,0,1,3.93564-1.43467,12.19866,12.19866,0,0,1,5.52006,9.1617,3.32338,3.32338,0,0,1-1.7153,3.59093c-1.51038.75045-2.74475.00286-3.84748-.92841A12.6,12.6,0,0,1,357.35055,61.511Z"/><path class="cls-1" d="M417.537,60.2207c-.21562,3.45142-1.02146,6.31542-3.421,8.524-1.58188,1.456-3.3018,1.12379-4.17-.806-1.42817-3.17461.98545-9.68994,4.1256-11.11967a1.94546,1.94546,0,0,1,2.8308,1.05011A12.14538,12.14538,0,0,1,417.537,60.2207Z"/><path class="cls-1" d="M373.94157,33.73666a1.49851,1.49851,0,0,1-.75469,1.62231,1.48,1.48,0,0,1-1.50225-.11654,2.087,2.087,0,0,1-.98681-2.65822,1.65922,1.65922,0,0,1,1.491-.81949A1.99343,1.99343,0,0,1,373.94157,33.73666Z"/><path class="cls-1" d="M357.95606,54.64079a.91676.91676,0,0,1-.4617.99249.90546.90546,0,0,1-.919-.0713,1.27677,1.27677,0,0,1-.6037-1.62624,1.015,1.015,0,0,1,.91214-.50134A1.21953,1.21953,0,0,1,357.95606,54.64079Z"/><path class="cls-1" d="M415.917,53.19685a.91677.91677,0,0,0,.51055.96827.90548.90548,0,0,0,.91436-.117,1.27679,1.27679,0,0,0,.522-1.65428,1.01506,1.01506,0,0,0-.936-.4553A1.21954,1.21954,0,0,0,415.917,53.19685Z"/><path class="cls-1" d="M398.89857,33.11493a1.49849,1.49849,0,0,0,.83453,1.58271,1.48,1.48,0,0,0,1.49458-.1912,2.087,2.087,0,0,0,.85322-2.704,1.65916,1.65916,0,0,0-1.52993-.74423A1.99342,1.99342,0,0,0,398.89857,33.11493Z"/></g><g id="guini_pig-2" data-name="guini pig"><path class="cls-2" d="M388.17764,79.47939l-3.81821-.83082c.22878.79217.39285,1.37233.56385,1.95044,1.3106,4.43066-1.39734,7.47715-5.9066,6.49526-6.04987-1.31738-10.26958-5.09489-12.99893-10.48735-1.74787-3.45332-.46428-5.88007,3.7581-7.77058-.26606-.677-.55852-1.35505-.80124-2.05051a7.24147,7.24147,0,0,1,1.04221-6.96314,11.073,11.073,0,0,1,11.20124-3.92706,16.65384,16.65384,0,0,0,9.60311-.11307,8.95472,8.95472,0,0,1,9.36617,2.19325c2.66937,2.68167,2.67688,6.14867,1.69142,9.6268-.20379.71927-.5422,1.40039-.85563,2.19281a3.90862,3.90862,0,0,0,.61268.24768c3.71167.76093,5.16386,3.16917,3.75241,6.71552a17.53393,17.53393,0,0,1-11.51374,10.73185,5.42456,5.42456,0,0,1-4.96986-.78364,3.99781,3.99781,0,0,1-1.66816-4.40588C387.46969,81.42,387.81036,80.56752,388.17764,79.47939Z"/><path class="cls-2" d="M385.27664,108.16626a15.68923,15.68923,0,0,1-8.29381-2.72089c-3.99665-2.71406-4.10791-6.72616-.29038-9.63023,1.51917-1.15565,3.164-2.01572,4.477-3.59247,2.11123-2.53522,8.196-2.638,10.31309-.14411a24.96953,24.96953,0,0,0,4.79515,3.81155c2.99451,2.19754,3.13763,5.85226.441,8.43336C394.34109,106.59919,390.55345,108.01834,385.27664,108.16626Z"/><path class="cls-2" d="M378.0851,44.52045a26.8781,26.8781,0,0,1-1.74408,4.78112c-1.021,1.74039-2.562,1.7925-4.13728.53249-3.10755-2.48558-4.52757-8.47209-2.86651-12.0846,1.26093-2.74233,3.69838-3.05333,5.60536-.687A15.60144,15.60144,0,0,1,378.0851,44.52045Z"/><path class="cls-2" d="M390.24921,44.10171c.07518-3.29059.49279-5.73149,2.19836-7.75028,1.769-2.094,3.89941-1.86346,5.25911.52437,1.79864,3.15865,1.332,8.33338-1.0293,11.415-1.76451,2.30276-4.08413,2.12641-5.33747-.544A20.863,20.863,0,0,1,390.24921,44.10171Z"/><path class="cls-2" d="M354.35055,59.511a14.89142,14.89142,0,0,1,.42081-2.109,2.5609,2.5609,0,0,1,3.93564-1.43467,12.19866,12.19866,0,0,1,5.52006,9.1617,3.32338,3.32338,0,0,1-1.7153,3.59093c-1.51038.75045-2.74475.00286-3.84748-.92841A12.6,12.6,0,0,1,354.35055,59.511Z"/><path class="cls-2" d="M414.537,58.2207c-.21562,3.45142-1.02146,6.31542-3.421,8.524-1.58188,1.456-3.3018,1.12379-4.17-.806-1.42817-3.17461.98545-9.68994,4.1256-11.11967a1.94546,1.94546,0,0,1,2.8308,1.05011A12.14538,12.14538,0,0,1,414.537,58.2207Z"/><path class="cls-2" d="M370.94157,31.73666a1.49851,1.49851,0,0,1-.75469,1.62231,1.48,1.48,0,0,1-1.50225-.11654,2.087,2.087,0,0,1-.98681-2.65822,1.65922,1.65922,0,0,1,1.491-.81949A1.99343,1.99343,0,0,1,370.94157,31.73666Z"/><path class="cls-2" d="M354.95606,52.64079a.91676.91676,0,0,1-.4617.99249.90546.90546,0,0,1-.919-.0713,1.27677,1.27677,0,0,1-.6037-1.62624,1.015,1.015,0,0,1,.91214-.50134A1.21953,1.21953,0,0,1,354.95606,52.64079Z"/><path class="cls-2" d="M412.917,51.19685a.91677.91677,0,0,0,.51055.96827.90548.90548,0,0,0,.91436-.117,1.27679,1.27679,0,0,0,.522-1.65428,1.01506,1.01506,0,0,0-.936-.4553A1.21954,1.21954,0,0,0,412.917,51.19685Z"/><path class="cls-2" d="M395.89857,31.11493a1.49849,1.49849,0,0,0,.83453,1.58271,1.48,1.48,0,0,0,1.49458-.1912,2.087,2.087,0,0,0,.85322-2.704,1.65916,1.65916,0,0,0-1.52993-.74423A1.99342,1.99342,0,0,0,395.89857,31.11493Z"/></g><g id="rabbit"><path class="cls-1" d="M300.31609,43.14388a4.53746,4.53746,0,0,0,3.0681-.20743c3.57149-1.47426,4.31489-6.64668,4.43306-7.46906.43108-2.9997.09075-8.14472-3.07031-9.789a4.652,4.652,0,0,0-2.76431-.46466c-3.3677.51962-4.872,5.0204-5.08445,5.65465C295.32656,35.56217,296.81678,41.99992,300.31609,43.14388Z"/><path class="cls-1" d="M288.779,44.19787a4.53751,4.53751,0,0,1-3.03606-.48848c-3.4209-1.79621-3.68585-7.01506-3.72795-7.84482-.15362-3.02663.65806-8.1186,3.95684-9.46541a4.652,4.652,0,0,1,2.79531-.20868c3.3057.82689,4.39005,5.44686,4.54332,6.09795C294.44414,37.10674,292.36865,43.38031,288.779,44.19787Z"/><path class="cls-1" d="M280.38089,54.59481a3.6991,3.6991,0,0,1-2.506.06832c-3.01232-.921-4.01465-5.06153-4.174-5.71985-.58126-2.40128-.70193-6.60318,1.73672-8.18148a3.79255,3.79255,0,0,1,2.20765-.59034c2.77327.16193,4.34133,3.69868,4.56268,4.197C283.8455,48.05668,283.13265,53.39645,280.38089,54.59481Z"/><path class="cls-1" d="M310.95649,55.83151a4.22652,4.22652,0,0,0,2.84407.34085c3.52395-.73158,5.09908-5.33724,5.34949-6.0695.91345-2.671,1.49191-7.43906-1.117-9.49081a4.33332,4.33332,0,0,0-2.44976-.90345c-3.17229-.10693-5.32768,3.75236-5.63185,4.29613C307.7011,48.029,307.95149,54.17916,310.95649,55.83151Z"/><path class="cls-1" d="M298.798,48.958c-.25223-.124-4.149-1.969-7.90921-.36417-2.39072,1.02034-2.92137,2.66489-6.69154,7.61788-3.14961,4.13787-4.05682,4.66856-5.03687,6.10888-4.10014,6.02569.95139,12.64766,9.32491,38.47406,1.24844,3.85082,3.62159,11.36949,8.90839,13.09175a5.2225,5.2225,0,0,0,3.16369.14566c3.29289-1.02151,4.43447-5.89441,5.18253-9.27255,2.35685-10.64434,3.851-18.989,4.11052-20.4183,2.59655-14.29544,5.42233-17.9607,2.6015-22.073C310.654,59.6471,308.945,60.31842,304.834,55.5767,301.81375,52.093,301.47206,50.27244,298.798,48.958Z"/></g><g id="rabbit-2" data-name="rabbit"><path class="cls-2" d="M297.65063,40.97946a4.53747,4.53747,0,0,0,3.0681-.20743c3.57149-1.47426,4.31489-6.64668,4.433-7.46906.43109-2.9997.09075-8.14472-3.0703-9.789a4.652,4.652,0,0,0-2.76431-.46466c-3.3677.51962-4.872,5.0204-5.08445,5.65466C292.6611,33.39775,294.15132,39.8355,297.65063,40.97946Z"/><path class="cls-2" d="M286.11355,42.03345a4.53747,4.53747,0,0,1-3.036-.48848c-3.42091-1.79621-3.68586-7.01506-3.728-7.84482-.15361-3.02663.65807-8.1186,3.95685-9.46541a4.652,4.652,0,0,1,2.79531-.20867c3.3057.82688,4.39005,5.44685,4.54332,6.09794C291.77868,34.94232,289.70318,41.21589,286.11355,42.03345Z"/><path class="cls-2" d="M277.71542,52.43039a3.69919,3.69919,0,0,1-2.506.06833c-3.01231-.921-4.01464-5.06154-4.174-5.71986-.58126-2.40128-.70193-6.60318,1.73672-8.18148a3.7925,3.7925,0,0,1,2.20764-.59034c2.77328.16193,4.34134,3.69869,4.56269,4.197C281.18,45.89226,280.46719,51.232,277.71542,52.43039Z"/><path class="cls-2" d="M308.291,53.66709a4.22661,4.22661,0,0,0,2.84407.34086c3.52394-.73159,5.09908-5.33724,5.34949-6.06951.91344-2.671,1.49191-7.43906-1.117-9.49081a4.33332,4.33332,0,0,0-2.44976-.90345c-3.17229-.10693-5.32769,3.75236-5.63185,4.29614C305.03563,45.86459,305.286,52.01474,308.291,53.66709Z"/><path class="cls-2" d="M296.1325,46.79358c-.25223-.124-4.149-1.969-7.90922-.36417-2.39072,1.02034-2.92137,2.66489-6.69154,7.61789-3.1496,4.13786-4.05681,4.66855-5.03686,6.10887-4.10014,6.02569.95139,12.64766,9.32491,38.47407,1.24844,3.85081,3.62159,11.36948,8.90839,13.09174a5.22263,5.22263,0,0,0,3.16369.14567c3.29289-1.02152,4.43447-5.89442,5.18253-9.27256,2.35684-10.64434,3.851-18.989,4.11051-20.4183,2.59656-14.29544,5.42234-17.9607,2.60151-22.073-1.79792-2.62114-3.50691-1.94982-7.61788-6.69154C299.14829,49.92863,298.8066,48.108,296.1325,46.79358Z"/></g><path class="cls-1" d="M206.06555,62.26926a5.7521,5.7521,0,0,0,3.99291.53233c4.96985-.96283,7.271-7.41071,7.63687-8.43566,1.33466-3.73912,2.23729-10.434-1.39314-13.36826-.058-.04687-.17158-.13365-.31742-.23511.07506-2.39018.17261-7.88284-.471-8.9397-.75954-1.24682-1.96578,5.31156-3.57451,7.90323-3.77047.47327-6.3649,4.73645-7.06614,5.892A15.56235,15.56235,0,0,0,203.286,57.322C203.692,59.06856,204.21371,61.17238,206.06555,62.26926Z"/><path class="cls-1" d="M187.00858,62.80893a5.752,5.752,0,0,0,3.99253-.53491c1.85118-1.09792,2.37151-3.20222,2.77639-4.949A15.56183,15.56183,0,0,0,192.183,45.62219c-.72353-1.19062-3.46086-5.67938-7.42119-5.91716-1.60129-2.61024-2.80591-9.11384-3.56165-7.87122-.66513,1.09345-.53405,6.94173-.45765,9.18339-3.61785,2.94053-2.712,9.62571-1.37618,13.36093C179.73286,55.403,182.03817,61.84933,187.00858,62.80893Z"/><path class="cls-1" d="M230.115,67.88376c.05992-2.2653.09574-6.44492-.4245-7.29906-.50347-.82642-1.23224,2.28634-2.16907,4.81856a5.13019,5.13019,0,0,0-1.90424-.481c-3.84192-.18052-6.50741,4.212-7.18846,5.33405a13.9827,13.9827,0,0,0-1.42591,10.51613c.36476,1.56929.83356,3.45962,2.49735,4.44513a5.16868,5.16868,0,0,0,3.58766.47833c4.46542-.86529,6.53313-6.65841,6.8617-7.57952C230.92622,75.37992,231.64432,70.88287,230.115,67.88376Z"/><path class="cls-1" d="M170.89042,64.9398a4.94389,4.94389,0,0,0-1.543.34257c-1.17328-2.58166-2.0681-6.9704-2.65426-6.00689-.72,1.18385-.36915,8.77013-.36915,8.77013l.00581.00019c-1.4362,2.99883-.72677,7.39709.23655,10.09078.32932.92092,2.40075,6.7129,6.86656,7.57524a5.16982,5.16982,0,0,0,3.58756-.48061c1.66312-.98666,2.13068-2.87727,2.49449-4.44666a13.98266,13.98266,0,0,0-1.43287-10.51528C177.40051,69.14763,174.73225,64.7568,170.89042,64.9398Z"/><path class="cls-1" d="M202.37958,71.78645a8.779,8.779,0,0,0-8.411.03544c-4.31491,2.70332-1.21548,8.17359-5.65508,15.953-3.27091,5.73187-6.99908,6.347-7.53665,11.48155-.092.88043-.46823,4.4738,1.88251,6.94125a7.87335,7.87335,0,0,0,4.93994,2.20575c5.227.53586,6.42148-3.82715,11.21166-3.73913,4.00682.07373,4.55945,3.15154,10.152,3.41142,3.40475.15833,4.84581-.90587,5.18448-1.172,2.22042-1.74515,2.36865-4.797,2.406-5.56392.23264-4.79-3.288-6.63392-6.73128-12.64539C204.66907,79.69739,207.14414,74.38117,202.37958,71.78645Z"/><path class="cls-2" d="M202.47126,60.47211a5.75206,5.75206,0,0,0,3.99291.53234c4.96985-.96284,7.271-7.41071,7.63687-8.43566,1.33466-3.73913,2.23729-10.434-1.39314-13.36826-.058-.04687-.17158-.13366-.31743-.23511.07507-2.39019.17262-7.88284-.471-8.93971-.75955-1.24682-1.96578,5.31156-3.57451,7.90323-3.77047.47327-6.3649,4.73645-7.06614,5.892a15.5624,15.5624,0,0,0-1.58711,11.70389C200.09775,57.27142,200.61942,59.37524,202.47126,60.47211Z"/><path class="cls-2" d="M183.41429,61.01178a5.75184,5.75184,0,0,0,3.99253-.53491c1.85118-1.09792,2.37151-3.20221,2.77639-4.949A15.56185,15.56185,0,0,0,188.58867,43.825c-.72353-1.19061-3.46086-5.67937-7.42119-5.91715-1.6013-2.61025-2.80591-9.11385-3.56165-7.87122-.66513,1.09344-.53405,6.94172-.45765,9.18339-3.61785,2.94052-2.712,9.6257-1.37618,13.36092C176.13857,53.60584,178.44387,60.05218,183.41429,61.01178Z"/><path class="cls-2" d="M226.52075,66.08661c.05992-2.26529.09574-6.44492-.4245-7.29906-.50347-.82642-1.23224,2.28634-2.16907,4.81857a5.13019,5.13019,0,0,0-1.90424-.481c-3.84192-.18053-6.50741,4.212-7.18846,5.334a13.98274,13.98274,0,0,0-1.42592,10.51614c.36477,1.56929.83357,3.45962,2.49736,4.44513a5.16872,5.16872,0,0,0,3.58766.47832c4.46542-.86529,6.53313-6.65841,6.8617-7.57952C227.33193,73.58277,228.05,69.08572,226.52075,66.08661Z"/><path class="cls-2" d="M167.29613,63.14266a4.94326,4.94326,0,0,0-1.543.34257c-1.17328-2.58167-2.0681-6.9704-2.65426-6.0069-.72,1.18385-.36915,8.77013-.36915,8.77013l.00581.0002c-1.4362,2.99882-.72677,7.39708.23654,10.09078.32933.92092,2.40076,6.7129,6.86656,7.57523a5.16979,5.16979,0,0,0,3.58757-.48061c1.66312-.98665,2.13068-2.87727,2.49449-4.44665a13.98266,13.98266,0,0,0-1.43287-10.51528C173.80621,67.35048,171.138,62.95965,167.29613,63.14266Z"/><path class="cls-2" d="M198.78529,69.98931a8.779,8.779,0,0,0-8.411.03543c-4.31491,2.70332-1.21548,8.17359-5.65509,15.953-3.2709,5.73186-6.99907,6.347-7.53665,11.48154-.092.88044-.46822,4.47381,1.88252,6.94125a7.87335,7.87335,0,0,0,4.93994,2.20575c5.227.53586,6.42148-3.82715,11.21166-3.73913,4.00682.07374,4.55945,3.15154,10.152,3.41142,3.40475.15833,4.84581-.90587,5.18448-1.172,2.22042-1.74514,2.36865-4.797,2.406-5.56391.23264-4.79-3.288-6.63393-6.73128-12.64539C201.07478,77.90025,203.54985,72.584,198.78529,69.98931Z"/><path class="cls-1" d="M515.88175,63.768c.04033-1.74281.05692-4.95813-.34549-5.6138-.38943-.63446-.942,1.762-1.6562,3.71245a10.94467,10.94467,0,0,0-1.35729.54717c-2.38867,1.15435-3.66256,2.85371-5.98136,6.0256-3.33337,4.55969-3.70276,5.10886-4.78066,6.02117-.55713.4715-3.75224,3.17591-4.79393,2.41909-.39107-.28415-.81107-1.29768,3.55784-12.02023,3.03444-7.44745,5.53167-12.5904,3.69528-14.34257a1.81117,1.81117,0,0,0-.23669-.19055c.13161-1.83489.37637-6.054-.08576-6.88618-.54534-.98185-1.67514,4.02207-2.99182,5.96445a10.02263,10.02263,0,0,0-1.63479,1.05093c-3.93629,3.11192-3.67591,7.82207-5.95039,14.43047-.82994,2.4113-2.96026,8.601-4.77181,8.42256-1.62343-.15988-2.62475-5.39744-6.06542-16.78761a12.53015,12.53015,0,0,0-3.6242-5.99021,10.6731,10.6731,0,0,0-1.51508-1.10513c-.95923-3.16127-2.03683-6.22557-2.61527-6.16589-.05069.00523-.09907.04373-.1451.12-.50872.8429-.39277,5.34148-.32823,7.06572a14.58194,14.58194,0,0,0-.18583,3.70506,14.928,14.928,0,0,0,1.21839,4.79835c4.30263,10.11253,7.26528,17.07552,6.06984,17.98831-.99228.75768-5.0099-2.53071-7.22187-4.77623-3.60933-3.664-4.91884-7.09708-9.641-9.57017-.56774-.29735-1.05074-.51061-1.37061-.64448-.90916-1.98291-1.609-5.35682-2.05742-4.614-.55068.91245-.26125,6.74756-.26125,6.74756l.0044.00021a11.41063,11.41063,0,0,0,.09607,2.1261c.58468,4.1772,3.37753,6.94418,4.83375,8.38717,7.963,7.89041,11.94447,11.83562,12.0512,11.96271,4.1761,4.9697,4.92318,7.7178,8.68755,8.904a10.82908,10.82908,0,0,0,6.4702-.049c3.50134-1.18067,4.81078-3.85328,7.65989-7.73832,7.41194-10.1069,12.056-10.40571,14.342-18.06352A22.70208,22.70208,0,0,0,515.88175,63.768Z"/><path class="cls-2" d="M512.88175,62.768c.04033-1.74281.05692-4.95813-.34549-5.6138-.38943-.63446-.942,1.762-1.6562,3.71245a10.94467,10.94467,0,0,0-1.35729.54717c-2.38867,1.15435-3.66256,2.85371-5.98136,6.0256-3.33337,4.55969-3.70276,5.10886-4.78066,6.02117-.55713.4715-3.75224,3.17591-4.79393,2.41909-.39107-.28415-.81107-1.29768,3.55784-12.02023,3.03444-7.44745,5.53167-12.5904,3.69528-14.34257a1.81117,1.81117,0,0,0-.23669-.19055c.13161-1.83489.37637-6.054-.08576-6.88618-.54534-.98185-1.67514,4.02207-2.99182,5.96445a10.02263,10.02263,0,0,0-1.63479,1.05093c-3.93629,3.11192-3.67591,7.82207-5.95039,14.43047-.82994,2.4113-2.96026,8.601-4.77181,8.42256-1.62343-.15988-2.62475-5.39744-6.06542-16.78761a12.53015,12.53015,0,0,0-3.6242-5.99021,10.6731,10.6731,0,0,0-1.51508-1.10513c-.95923-3.16127-2.03683-6.22557-2.61527-6.16589-.05069.00523-.09907.04373-.1451.12-.50872.8429-.39277,5.34148-.32823,7.06572a14.58194,14.58194,0,0,0-.18583,3.70506,14.928,14.928,0,0,0,1.21839,4.79835c4.30263,10.11253,7.26528,17.07552,6.06984,17.98831-.99228.75768-5.0099-2.53071-7.22187-4.77623-3.60933-3.664-4.91884-7.09708-9.641-9.57017-.56774-.29735-1.05074-.51061-1.37061-.64448-.90916-1.98291-1.609-5.35682-2.05742-4.614-.55068.91245-.26125,6.74756-.26125,6.74756l.0044.00021a11.41063,11.41063,0,0,0,.09607,2.1261c.58468,4.1772,3.37753,6.94418,4.83375,8.38717,7.963,7.89041,11.94447,11.83562,12.0512,11.96271,4.1761,4.9697,4.92318,7.7178,8.68755,8.904a10.82908,10.82908,0,0,0,6.4702-.049c3.50134-1.18067,4.81078-3.85328,7.65989-7.73832,7.41194-10.1069,12.056-10.40571,14.342-18.06352A22.70208,22.70208,0,0,0,512.88175,62.768Z"/><g id="chicken"><path class="cls-1" d="M600.88076,70.10431c-1.29345-.69561-3.8559-.93435-10.69541,2.754-5.68322,3.06483-7.77962,5.31435-8.8165,4.57678-1.117-.79455.08242-4.282.65045-5.93385,1.6912-4.91774,3.7643-6.00791,6.11863-11.57055,2.29534-5.42317,1.31227-6.72,1.00376-7.04995a2.93285,2.93285,0,0,0-2.23221-.70662c-2.8.18116-5.02547,3.71207-8.70416,11.98-4.61921,10.382-5.06986,13.71432-6.82526,13.80276-3.4741.17507-6.633-12.61861-11.6829-13.5219a3.33736,3.33736,0,0,0-2.58552.40949c-1.14245.88152-1.0818,2.69527-1.05993,3.34832.13946,4.16585,3.67986,6.17216,7.21847,12.10865,2.56242,4.29878,3.88872,6.5238,4.22346,9.93261.25521,2.59888-.14742,5.057,1.58177,6.64047a3.98564,3.98564,0,0,0,3.34832,1.05993c1.7121-.36978,2.38371-2.18266,3.99876-4.87391a56.22955,56.22955,0,0,1,4.35208-5.99c5.41552-6.61151,15.48026-9.24653,16.51691-9.50686,2.06307-.51817,5.357-1.12707,5.87767-3.05118a3.86911,3.86911,0,0,0-.40949-2.58552A4.89654,4.89654,0,0,0,600.88076,70.10431Z"/><path class="cls-1" d="M554.52612,65.254s2.176-2.995,4.40825-2.28838c.14837.047.40332.11192.48526.00507.24923-.32518-1.26147-2.11493-3.127-3.29722-.3281-.208-2.68748-1.70327-3.34832-1.05993-.19131.18622-.16882.48215.40949,2.58552C553.79591,62.80706,554.017,63.61107,554.52612,65.254Z"/><path class="cls-1" d="M604.18143,74.82277s.58472-3.65558-1.49169-4.73753c-.138-.07192-.364-.20661-.3462-.34008.05433-.40609,2.3884-.59981,4.54276-.11341.37892.08553,3.10366.70071,3.11462,1.62292.00318.267-.22228.46-2.12016,1.53544C606.42989,73.61229,605.7044,74.02335,604.18143,74.82277Z"/><path class="cls-1" d="M591.306,52.71011s-1.96169-3.13959-4.23778-2.59049c-.15128.03649-.41014.08349-.48442-.02881-.22594-.34178,1.406-2.02172,3.34947-3.07092.34181-.18455,2.79981-1.51154,3.41413-.82364.17784.19912.13475.49276-.58895,2.55063C592.20522,50.32007,591.92853,51.10669,591.306,52.71011Z"/></g><g id="chicken-2" data-name="chicken"><path class="cls-2" d="M598.88076,68.10431c-1.29345-.69561-3.8559-.93435-10.69541,2.754-5.68322,3.06483-7.77962,5.31435-8.8165,4.57678-1.117-.79455.08242-4.282.65045-5.93385,1.6912-4.91774,3.7643-6.00791,6.11863-11.57055,2.29534-5.42317,1.31227-6.72,1.00376-7.04995a2.93285,2.93285,0,0,0-2.23221-.70662c-2.8.18116-5.02547,3.71207-8.70416,11.98-4.61921,10.382-5.06986,13.71432-6.82526,13.80276-3.4741.17507-6.633-12.61861-11.6829-13.5219a3.33736,3.33736,0,0,0-2.58552.40949c-1.14245.88152-1.0818,2.69527-1.05993,3.34832.13946,4.16585,3.67986,6.17216,7.21847,12.10865,2.56242,4.29878,3.88872,6.5238,4.22346,9.93261.25521,2.59888-.14742,5.057,1.58177,6.64047a3.98564,3.98564,0,0,0,3.34832,1.05993c1.7121-.36978,2.38371-2.18266,3.99876-4.87391a56.22955,56.22955,0,0,1,4.35208-5.99c5.41552-6.61151,15.48026-9.24653,16.51691-9.50686,2.06307-.51817,5.357-1.12707,5.87767-3.05118a3.86911,3.86911,0,0,0-.40949-2.58552A4.89654,4.89654,0,0,0,598.88076,68.10431Z"/><path class="cls-2" d="M552.52612,63.254s2.176-2.995,4.40825-2.28838c.14837.047.40332.11192.48526.00507.24923-.32518-1.26147-2.11493-3.127-3.29722-.3281-.208-2.68748-1.70327-3.34832-1.05993-.19131.18622-.16882.48215.40949,2.58552C551.79591,60.80706,552.017,61.61107,552.52612,63.254Z"/><path class="cls-2" d="M602.18143,72.82277s.58472-3.65558-1.49169-4.73753c-.138-.07192-.364-.20661-.3462-.34008.05433-.40609,2.3884-.59981,4.54276-.11341.37892.08553,3.10366.70071,3.11462,1.62292.00318.267-.22228.46-2.12016,1.53544C604.42989,71.61229,603.7044,72.02335,602.18143,72.82277Z"/><path class="cls-2" d="M589.306,50.71011s-1.96169-3.13959-4.23778-2.59049c-.15128.03649-.41014.08349-.48442-.02881-.22594-.34178,1.406-2.02172,3.34947-3.07092.34181-.18455,2.79981-1.51154,3.41413-.82364.17784.19912.13475.49276-.58895,2.55063C590.20522,48.32007,589.92853,49.10669,589.306,50.71011Z"/></g><g id="duck"><path class="cls-1" d="M695.53511,78.24869c-2.79968,2.3382-6.64441,5.46849-11.19162,5.30981a5.95625,5.95625,0,0,1-4.12536-1.47045c-.66179-.67008-1.05793-1.4994-1.55706-4.11137a36.90162,36.90162,0,0,1-.82988-5.737c.11184-5.41486.06224-10.07262.10383-13.74795.01773-1.56686.13985-12.35455-1.12726-12.49048-.19909-.02136-.63306.19872-1.44185,2.74071-2.46955,7.76172-1.16264,14.31958-1.89945,24.89515-.23783,3.41383-.63648,6.50014-2.9409,8.25072a7.03942,7.03942,0,0,1-4.18256,1.29886c-7.93124.05477-13.452-11.78609-21.86845-14.30413-.51014-.15262-1.16424-.31089-1.38465-.0286-.65691.84134,3.28669,4.638,12.17588,14.10393,3.12847,3.33144,6.64037,6.32179,9.49237,9.89277,2.51677,3.15122,3.97238,5.51007,7.06683,6.38919a10.41919,10.41919,0,0,0,6.6653-.56458c3.39738-1.39005,4.85688-3.91052,7.06626-6.78027,1.951-2.53411,5.54039-5.75757,12.71928-12.20448,6.026-5.41164,10.40633-8.67863,9.89276-9.49237-.17385-.27543-.83815-.15861-1.38465-.0286C702.20252,71.25936,699.735,74.74107,695.53511,78.24869Z"/><path class="cls-1" d="M666.3716,81.802a6.37247,6.37247,0,0,0,2.7979-1.32745c3.40777-2.6869,2.334-7.10268,3.16971-19.32794.31937-4.67234.72391-7.651-.00546-7.85323-.79414-.22013-1.80228,3.16436-5.53316,7.73883-1.98642,2.43561-3.28687,4.03009-5.653,5.42421a16.36624,16.36624,0,0,1-9.74977,2.56911c-1.41257-.13409-2.54334-.48117-2.7693-.0572-.31476.59056,1.44965,2.07,4.06816,4.23976C661.83328,80.77906,663.77279,82.2869,666.3716,81.802Z"/><path class="cls-1" d="M684.61651,82.1789a6.37256,6.37256,0,0,1-2.74071-1.44185c-3.29391-2.82533-2.03874-7.193-2.36891-19.44234-.12617-4.68155-.40737-7.67441.32972-7.84631.80256-.18715,1.67009,3.23608,5.20889,7.9607,1.88416,2.51556,3.11766,4.16238,5.42422,5.653a16.36628,16.36628,0,0,0,9.63537,2.96951c1.4169-.07565,2.561-.37574,2.7693.0572.2901.603-1.53389,2.00835-4.23976,4.06816C689.1932,81.34418,687.19308,82.77064,684.61651,82.1789Z"/></g><g id="duck-2" data-name="duck"><path class="cls-2" d="M693.53511,76.24869c-2.79968,2.3382-6.64441,5.46849-11.19162,5.30981a5.95625,5.95625,0,0,1-4.12536-1.47045c-.66179-.67008-1.05793-1.4994-1.55706-4.11137a36.90162,36.90162,0,0,1-.82988-5.737c.11184-5.41486.06224-10.07262.10383-13.74795.01773-1.56686.13985-12.35455-1.12726-12.49048-.19909-.02136-.63306.19872-1.44185,2.74071-2.46955,7.76172-1.16264,14.31958-1.89945,24.89515-.23783,3.41383-.63648,6.50014-2.9409,8.25072a7.03942,7.03942,0,0,1-4.18256,1.29886c-7.93124.05477-13.452-11.78609-21.86845-14.30413-.51014-.15262-1.16424-.31089-1.38465-.0286-.65691.84134,3.28669,4.638,12.17588,14.10393,3.12847,3.33144,6.64037,6.32179,9.49237,9.89277,2.51677,3.15122,3.97238,5.51007,7.06683,6.38919a10.41919,10.41919,0,0,0,6.6653-.56458c3.39738-1.39005,4.85688-3.91052,7.06626-6.78027,1.951-2.53411,5.54039-5.75757,12.71928-12.20448,6.026-5.41164,10.40633-8.67863,9.89276-9.49237-.17385-.27543-.83815-.15861-1.38465-.0286C700.20252,69.25936,697.735,72.74107,693.53511,76.24869Z"/><path class="cls-2" d="M664.3716,79.802a6.37247,6.37247,0,0,0,2.7979-1.32745c3.40777-2.6869,2.334-7.10268,3.16971-19.32794.31937-4.67234.72391-7.651-.00546-7.85323-.79414-.22013-1.80228,3.16436-5.53316,7.73883-1.98642,2.43561-3.28687,4.03009-5.653,5.42421a16.36624,16.36624,0,0,1-9.74977,2.56911c-1.41257-.13409-2.54334-.48117-2.7693-.0572-.31476.59056,1.44965,2.07,4.06816,4.23976C659.83328,78.77906,661.77279,80.2869,664.3716,79.802Z"/><path class="cls-2" d="M682.61651,80.1789a6.37256,6.37256,0,0,1-2.74071-1.44185c-3.29391-2.82533-2.03874-7.193-2.36891-19.44234-.12617-4.68155-.40737-7.67441.32972-7.84631.80256-.18715,1.67009,3.23608,5.20889,7.9607,1.88416,2.51556,3.11766,4.16238,5.42422,5.653a16.36628,16.36628,0,0,0,9.63537,2.96951c1.4169-.07565,2.561-.37574,2.7693.0572.2901.603-1.53389,2.00835-4.23976,4.06816C687.1932,79.34418,685.19308,80.77064,682.61651,80.1789Z"/></g><g id="dog-3" data-name="dog"><path class="cls-1" d="M1881.47609,25.97117c-6.03119-.46328-10.4266,6.31748-11.5494,8.04965-4.61479,7.11926-3.12052,14.53948-2.73279,16.46491.5002,2.484,1.14879,5.47759,3.71837,7.10441a8.12985,8.12985,0,0,0,5.61772.91956c7.06-1.15165,10.58092-10.16225,11.14071-11.59487,2.04185-5.22549,3.59765-14.64372-1.40707-18.94053A8.61555,8.61555,0,0,0,1881.47609,25.97117Z"/><path class="cls-1" d="M1848.46522,25.00124c6.048-.10837,10.03769,6.91877,11.05685,8.71387,4.18883,7.37793,2.26147,14.69762,1.76136,16.597-.64518,2.45034-1.46842,5.40069-4.12908,6.87383a8.12988,8.12988,0,0,1-5.662.58814c-6.98021-1.56418-9.966-10.766-10.44071-12.229-1.73153-5.33636-2.73166-14.82969,2.51671-18.82524A8.61549,8.61549,0,0,1,1848.46522,25.00124Z"/><path class="cls-1" d="M1830.28353,53.3059c5.489-.09835,9.10992,6.27927,10.03489,7.90846a19.95809,19.95809,0,0,1,1.59856,15.06293c-.58555,2.22386-1.3327,4.90152-3.74744,6.2385a7.37841,7.37841,0,0,1-5.13869.53377c-6.335-1.4196-9.04487-9.77089-9.4757-11.09867-1.57148-4.84313-2.47917-13.459,2.2841-17.08526A7.8191,7.8191,0,0,1,1830.28353,53.3059Z"/><path class="cls-1" d="M1897.82745,55.29048c-5.47373-.42045-9.46289,5.73357-10.48191,7.30564a19.958,19.958,0,0,0-2.4802,14.94309c.454,2.2544,1.04261,4.9713,3.37468,6.44776a7.37843,7.37843,0,0,0,5.09849.83456c6.40746-1.0452,9.60294-9.223,10.111-10.52317,1.85313-4.74251,3.26513-13.29023-1.277-17.18989A7.81911,7.81911,0,0,0,1897.82745,55.29048Z"/><path class="cls-1" d="M1862.94671,68.679c-6.7524-.07847-11.42739,6.80852-16.20711,13.84978-2.65683,3.91394-7.30711,10.967-6.08332,19.08862.27151,1.802.80745,5.051,3.329,6.71662.50622.33437,2.27135,1.38371,8.285.45318,6.3342-.98011,6.235-2.432,9.60227-2.49659,5.95631-.11436,7.41075,4.40649,13.01083,4.119a11.65528,11.65528,0,0,0,8.09-3.86715c5.6438-6.85778-1.44414-20.4529-5.72407-26.55341C1873.80546,75.08026,1869.36688,68.75362,1862.94671,68.679Z"/></g><g id="dog-4" data-name="dog"><path class="cls-2" d="M1885.47609,23.97117c-6.03119-.46328-10.4266,6.31748-11.5494,8.04965-4.61479,7.11926-3.12052,14.53948-2.73279,16.46491.5002,2.484,1.14879,5.47759,3.71837,7.10441a8.12985,8.12985,0,0,0,5.61772.91956c7.06-1.15165,10.58092-10.16225,11.14071-11.59487,2.04185-5.22549,3.59765-14.64372-1.40707-18.94053A8.61555,8.61555,0,0,0,1885.47609,23.97117Z"/><path class="cls-2" d="M1852.46522,23.00124c6.048-.10837,10.03769,6.91877,11.05685,8.71387,4.18883,7.37793,2.26147,14.69762,1.76136,16.597-.64518,2.45034-1.46842,5.40069-4.12908,6.87383a8.12988,8.12988,0,0,1-5.662.58814c-6.98021-1.56418-9.966-10.766-10.44071-12.229-1.73153-5.33636-2.73166-14.82969,2.51671-18.82524A8.61549,8.61549,0,0,1,1852.46522,23.00124Z"/><path class="cls-2" d="M1834.28353,51.3059c5.489-.09835,9.10992,6.27927,10.03489,7.90846a19.95809,19.95809,0,0,1,1.59856,15.06293c-.58555,2.22386-1.3327,4.90152-3.74744,6.2385a7.37841,7.37841,0,0,1-5.13869.53377c-6.335-1.4196-9.04487-9.77089-9.4757-11.09867-1.57148-4.84313-2.47917-13.459,2.2841-17.08526A7.8191,7.8191,0,0,1,1834.28353,51.3059Z"/><path class="cls-2" d="M1901.82745,53.29048c-5.47373-.42045-9.46289,5.73357-10.48191,7.30564a19.958,19.958,0,0,0-2.4802,14.94309c.454,2.2544,1.04261,4.9713,3.37468,6.44776a7.37843,7.37843,0,0,0,5.09849.83456c6.40746-1.0452,9.60294-9.223,10.111-10.52317,1.85313-4.74251,3.26513-13.29023-1.277-17.18989A7.81911,7.81911,0,0,0,1901.82745,53.29048Z"/><path class="cls-2" d="M1866.94671,66.679c-6.7524-.07847-11.42739,6.80852-16.20711,13.84978-2.65683,3.91394-7.30711,10.967-6.08332,19.08862.27151,1.802.80745,5.051,3.329,6.71662.50622.33437,2.27135,1.38371,8.285.45318,6.3342-.98011,6.235-2.432,9.60227-2.49659,5.95631-.11436,7.41075,4.40649,13.01083,4.119a11.65528,11.65528,0,0,0,8.09-3.86715c5.6438-6.85778-1.44414-20.4529-5.72407-26.55341C1877.80546,73.08026,1873.36688,66.75362,1866.94671,66.679Z"/></g><g id="guini_pig-3" data-name="guini pig"><path class="cls-1" d="M1553.04149,81.47939l3.81821-.83082c-.22879.79217-.39285,1.37233-.56386,1.95044-1.3106,4.43066,1.39734,7.47715,5.9066,6.49526,6.04987-1.31738,10.26958-5.09489,12.99894-10.48735,1.74787-3.45332.46428-5.88007-3.7581-7.77058.26606-.677.55851-1.35505.80123-2.05051a7.24144,7.24144,0,0,0-1.0422-6.96314,11.073,11.073,0,0,0-11.20125-3.92706,16.6538,16.6538,0,0,1-9.6031-.11307,8.95472,8.95472,0,0,0-9.36617,2.19325c-2.66938,2.68167-2.67688,6.14867-1.69143,9.6268.2038.71927.5422,1.40039.85563,2.19281a3.90862,3.90862,0,0,1-.61268.24768c-3.71167.76093-5.16386,3.16917-3.7524,6.71552a17.53392,17.53392,0,0,0,11.51373,10.73185,5.42455,5.42455,0,0,0,4.96986-.78364,3.99783,3.99783,0,0,0,1.66817-4.40588C1553.74944,83.42,1553.40877,82.56752,1553.04149,81.47939Z"/><path class="cls-1" d="M1555.94248,110.16626a15.68923,15.68923,0,0,0,8.29382-2.72089c3.99665-2.71406,4.1079-6.72616.29037-9.63023-1.51917-1.15565-3.16395-2.01572-4.477-3.59247-2.11122-2.53522-8.196-2.638-10.31309-.14411a24.96953,24.96953,0,0,1-4.79515,3.81155c-2.99451,2.19754-3.13763,5.85226-.441,8.43336C1546.878,108.59919,1550.66568,110.01834,1555.94248,110.16626Z"/><path class="cls-1" d="M1563.134,46.52045a26.87732,26.87732,0,0,0,1.74408,4.78112c1.021,1.74039,2.562,1.7925,4.13727.53249,3.10755-2.48558,4.52757-8.47209,2.86652-12.0846-1.26094-2.74233-3.69838-3.05333-5.60537-.687A15.60152,15.60152,0,0,0,1563.134,46.52045Z"/><path class="cls-1" d="M1550.96992,46.10171c-.07519-3.29059-.4928-5.73149-2.19836-7.75028-1.76906-2.094-3.89941-1.86346-5.25912.52437-1.79863,3.15865-1.332,8.33338,1.0293,11.415,1.76452,2.30276,4.08413,2.12641,5.33747-.544A20.86405,20.86405,0,0,0,1550.96992,46.10171Z"/><path class="cls-1" d="M1586.86857,61.511a14.89,14.89,0,0,0-.42081-2.109,2.5609,2.5609,0,0,0-3.93564-1.43467,12.19862,12.19862,0,0,0-5.52005,9.1617,3.32338,3.32338,0,0,0,1.7153,3.59093c1.51037.75045,2.74474.00286,3.84748-.92841A12.6,12.6,0,0,0,1586.86857,61.511Z"/><path class="cls-1" d="M1526.68211,60.2207c.21561,3.45142,1.02146,6.31542,3.421,8.524,1.58187,1.456,3.3018,1.12379,4.17-.806,1.42818-3.17461-.98544-9.68994-4.12559-11.11967a1.94547,1.94547,0,0,0-2.83081,1.05011A12.14455,12.14455,0,0,0,1526.68211,60.2207Z"/><path class="cls-1" d="M1570.27756,33.73666a1.49851,1.49851,0,0,0,.75468,1.62231,1.48007,1.48007,0,0,0,1.50226-.11654,2.087,2.087,0,0,0,.9868-2.65822,1.6592,1.6592,0,0,0-1.491-.81949A1.99343,1.99343,0,0,0,1570.27756,33.73666Z"/><path class="cls-1" d="M1586.26307,54.64079a.91675.91675,0,0,0,.4617.99249.90544.90544,0,0,0,.919-.0713,1.27678,1.27678,0,0,0,.60371-1.62624,1.01505,1.01505,0,0,0-.91215-.50134A1.21952,1.21952,0,0,0,1586.26307,54.64079Z"/><path class="cls-1" d="M1528.30212,53.19685a.91676.91676,0,0,1-.51054.96827.90548.90548,0,0,1-.91436-.117,1.27677,1.27677,0,0,1-.522-1.65428,1.015,1.015,0,0,1,.936-.4553A1.21954,1.21954,0,0,1,1528.30212,53.19685Z"/><path class="cls-1" d="M1545.32056,33.11493a1.49852,1.49852,0,0,1-.83453,1.58271,1.48006,1.48006,0,0,1-1.49459-.1912,2.087,2.087,0,0,1-.85322-2.704,1.65918,1.65918,0,0,1,1.52993-.74423A1.99342,1.99342,0,0,1,1545.32056,33.11493Z"/></g><g id="guini_pig-4" data-name="guini pig"><path class="cls-2" d="M1556.04149,79.47939l3.81821-.83082c-.22879.79217-.39285,1.37233-.56386,1.95044-1.3106,4.43066,1.39734,7.47715,5.9066,6.49526,6.04987-1.31738,10.26958-5.09489,12.99894-10.48735,1.74787-3.45332.46428-5.88007-3.7581-7.77058.26606-.677.55851-1.35505.80123-2.05051a7.24144,7.24144,0,0,0-1.0422-6.96314,11.073,11.073,0,0,0-11.20125-3.92706,16.6538,16.6538,0,0,1-9.6031-.11307,8.95472,8.95472,0,0,0-9.36617,2.19325c-2.66938,2.68167-2.67688,6.14867-1.69143,9.6268.2038.71927.5422,1.40039.85563,2.19281a3.90862,3.90862,0,0,1-.61268.24768c-3.71167.76093-5.16386,3.16917-3.7524,6.71552a17.53392,17.53392,0,0,0,11.51373,10.73185,5.42455,5.42455,0,0,0,4.96986-.78364,3.99783,3.99783,0,0,0,1.66817-4.40588C1556.74944,81.42,1556.40877,80.56752,1556.04149,79.47939Z"/><path class="cls-2" d="M1558.94248,108.16626a15.68923,15.68923,0,0,0,8.29382-2.72089c3.99665-2.71406,4.1079-6.72616.29037-9.63023-1.51917-1.15565-3.16395-2.01572-4.477-3.59247-2.11122-2.53522-8.196-2.638-10.31309-.14411a24.96953,24.96953,0,0,1-4.79515,3.81155c-2.99451,2.19754-3.13763,5.85226-.441,8.43336C1549.878,106.59919,1553.66568,108.01834,1558.94248,108.16626Z"/><path class="cls-2" d="M1566.134,44.52045a26.87732,26.87732,0,0,0,1.74408,4.78112c1.021,1.74039,2.562,1.7925,4.13727.53249,3.10755-2.48558,4.52757-8.47209,2.86652-12.0846-1.26094-2.74233-3.69838-3.05333-5.60537-.687A15.60152,15.60152,0,0,0,1566.134,44.52045Z"/><path class="cls-2" d="M1553.96992,44.10171c-.07519-3.29059-.4928-5.73149-2.19836-7.75028-1.76906-2.094-3.89941-1.86346-5.25912.52437-1.79863,3.15865-1.332,8.33338,1.0293,11.415,1.76452,2.30276,4.08413,2.12641,5.33747-.544A20.86405,20.86405,0,0,0,1553.96992,44.10171Z"/><path class="cls-2" d="M1589.86857,59.511a14.89,14.89,0,0,0-.42081-2.109,2.5609,2.5609,0,0,0-3.93564-1.43467,12.19862,12.19862,0,0,0-5.52005,9.1617,3.32338,3.32338,0,0,0,1.7153,3.59093c1.51037.75045,2.74474.00286,3.84748-.92841A12.6,12.6,0,0,0,1589.86857,59.511Z"/><path class="cls-2" d="M1529.68211,58.2207c.21561,3.45142,1.02146,6.31542,3.421,8.524,1.58187,1.456,3.3018,1.12379,4.17-.806,1.42818-3.17461-.98544-9.68994-4.12559-11.11967a1.94547,1.94547,0,0,0-2.83081,1.05011A12.14455,12.14455,0,0,0,1529.68211,58.2207Z"/><path class="cls-2" d="M1573.27756,31.73666a1.49851,1.49851,0,0,0,.75468,1.62231,1.48007,1.48007,0,0,0,1.50226-.11654,2.087,2.087,0,0,0,.9868-2.65822,1.6592,1.6592,0,0,0-1.491-.81949A1.99343,1.99343,0,0,0,1573.27756,31.73666Z"/><path class="cls-2" d="M1589.26307,52.64079a.91675.91675,0,0,0,.4617.99249.90544.90544,0,0,0,.919-.0713,1.27678,1.27678,0,0,0,.60371-1.62624,1.01505,1.01505,0,0,0-.91215-.50134A1.21952,1.21952,0,0,0,1589.26307,52.64079Z"/><path class="cls-2" d="M1531.30212,51.19685a.91676.91676,0,0,1-.51054.96827.90548.90548,0,0,1-.91436-.117,1.27677,1.27677,0,0,1-.522-1.65428,1.015,1.015,0,0,1,.936-.4553A1.21954,1.21954,0,0,1,1531.30212,51.19685Z"/><path class="cls-2" d="M1548.32056,31.11493a1.49852,1.49852,0,0,1-.83453,1.58271,1.48006,1.48006,0,0,1-1.49459-.1912,2.087,2.087,0,0,1-.85322-2.704,1.65918,1.65918,0,0,1,1.52993-.74423A1.99342,1.99342,0,0,1,1548.32056,31.11493Z"/></g><g id="rabbit-3" data-name="rabbit"><path class="cls-1" d="M1643.903,43.14388a4.53747,4.53747,0,0,1-3.0681-.20743c-3.57149-1.47426-4.31488-6.64668-4.43305-7.46906-.43109-2.9997-.09075-8.14472,3.07031-9.789a4.65194,4.65194,0,0,1,2.76431-.46466c3.3677.51962,4.872,5.0204,5.08445,5.65465C1648.89257,35.56217,1647.40235,41.99992,1643.903,43.14388Z"/><path class="cls-1" d="M1655.44011,44.19787a4.53747,4.53747,0,0,0,3.036-.48848c3.42091-1.79621,3.68586-7.01506,3.728-7.84482.15361-3.02663-.65807-8.1186-3.95684-9.46541a4.652,4.652,0,0,0-2.79532-.20868c-3.3057.82689-4.39005,5.44686-4.54332,6.09795C1649.775,37.10674,1651.85048,43.38031,1655.44011,44.19787Z"/><path class="cls-1" d="M1663.83824,54.59481a3.6991,3.6991,0,0,0,2.506.06832c3.01231-.921,4.01464-5.06153,4.174-5.71985.58126-2.40128.70193-6.60318-1.73672-8.18148a3.7925,3.7925,0,0,0-2.20764-.59034c-2.77328.16193-4.34134,3.69868-4.56269,4.197C1660.37362,48.05668,1661.08647,53.39645,1663.83824,54.59481Z"/><path class="cls-1" d="M1633.26263,55.83151a4.2265,4.2265,0,0,1-2.84406.34085c-3.524-.73158-5.09909-5.33724-5.3495-6.0695-.91344-2.671-1.49191-7.43906,1.117-9.49081a4.33332,4.33332,0,0,1,2.44976-.90345c3.17229-.10693,5.32769,3.75236,5.63185,4.29613C1636.518,48.029,1636.26763,54.17916,1633.26263,55.83151Z"/><path class="cls-1" d="M1645.42116,48.958c.25224-.124,4.149-1.969,7.90922-.36417,2.39072,1.02034,2.92137,2.66489,6.69154,7.61788,3.1496,4.13787,4.05681,4.66856,5.03686,6.10888,4.10014,6.02569-.95139,12.64766-9.32491,38.47406-1.24844,3.85082-3.62159,11.36949-8.90839,13.09175a5.22251,5.22251,0,0,1-3.16369.14566c-3.29289-1.02151-4.43447-5.89441-5.18252-9.27255-2.35685-10.64434-3.851-18.989-4.11052-20.4183-2.59655-14.29544-5.42234-17.9607-2.60151-22.073,1.79792-2.62114,3.50691-1.94982,7.61788-6.69154C1642.40537,52.093,1642.74707,50.27244,1645.42116,48.958Z"/></g><g id="rabbit-4" data-name="rabbit"><path class="cls-2" d="M1646.56849,40.97946a4.53744,4.53744,0,0,1-3.06809-.20743c-3.57149-1.47426-4.31489-6.64668-4.43306-7.46906-.43108-2.9997-.09075-8.14472,3.07031-9.789a4.652,4.652,0,0,1,2.76431-.46466c3.3677.51962,4.872,5.0204,5.08445,5.65466C1651.558,33.39775,1650.06781,39.8355,1646.56849,40.97946Z"/><path class="cls-2" d="M1658.10557,42.03345a4.53751,4.53751,0,0,0,3.03606-.48848c3.4209-1.79621,3.68585-7.01506,3.72795-7.84482.15361-3.02663-.65806-8.1186-3.95684-9.46541a4.652,4.652,0,0,0-2.79531-.20867c-3.30571.82688-4.39,5.44685-4.54333,6.09794C1652.44045,34.94232,1654.51594,41.21589,1658.10557,42.03345Z"/><path class="cls-2" d="M1666.5037,52.43039a3.69918,3.69918,0,0,0,2.506.06833c3.01231-.921,4.01465-5.06154,4.174-5.71986.58126-2.40128.70193-6.60318-1.73672-8.18148a3.79257,3.79257,0,0,0-2.20765-.59034c-2.77328.16193-4.34134,3.69869-4.56269,4.197C1663.03909,45.89226,1663.75193,51.232,1666.5037,52.43039Z"/><path class="cls-2" d="M1635.9281,53.66709a4.22661,4.22661,0,0,1-2.84407.34086c-3.524-.73159-5.09908-5.33724-5.34949-6.06951-.91345-2.671-1.49192-7.43906,1.11694-9.49081a4.33339,4.33339,0,0,1,2.44976-.90345c3.1723-.10693,5.32769,3.75236,5.63186,4.29614C1639.18349,45.86459,1638.93309,52.01474,1635.9281,53.66709Z"/><path class="cls-2" d="M1648.08663,46.79358c.25223-.124,4.149-1.969,7.90921-.36417,2.39072,1.02034,2.92137,2.66489,6.69154,7.61789,3.14961,4.13786,4.05681,4.66855,5.03686,6.10887,4.10014,6.02569-.95138,12.64766-9.3249,38.47407-1.24845,3.85081-3.6216,11.36948-8.9084,13.09174a5.2226,5.2226,0,0,1-3.16368.14567c-3.2929-1.02152-4.43448-5.89442-5.18253-9.27256-2.35685-10.64434-3.851-18.989-4.11052-20.4183-2.59655-14.29544-5.42233-17.9607-2.60151-22.073,1.79792-2.62114,3.50691-1.94982,7.61789-6.69154C1645.07084,49.92863,1645.41253,48.108,1648.08663,46.79358Z"/></g><path class="cls-1" d="M1738.15357,62.26926a5.7521,5.7521,0,0,1-3.99291.53233c-4.96985-.96283-7.271-7.41071-7.63687-8.43566-1.33465-3.73912-2.23728-10.434,1.39315-13.36825.058-.04688.17157-.13366.31742-.23512-.07507-2.39018-.17262-7.88284.471-8.9397.75954-1.24682,1.96578,5.31156,3.57451,7.90323,3.77046.47327,6.36489,4.73645,7.06614,5.892a15.5624,15.5624,0,0,1,1.5871,11.7039C1740.52708,59.06856,1740.00542,61.17238,1738.15357,62.26926Z"/><path class="cls-1" d="M1757.21054,62.80893a5.752,5.752,0,0,1-3.99253-.53491c-1.85118-1.09792-2.37151-3.20222-2.77638-4.949a15.56186,15.56186,0,0,1,1.59453-11.70284c.72353-1.19062,3.46086-5.67938,7.42119-5.91716,1.6013-2.61024,2.80592-9.11384,3.56165-7.87122.66514,1.09345.534,6.94173.45765,9.18339,3.61785,2.94053,2.712,9.62571,1.37619,13.36093C1764.48626,55.403,1762.181,61.84933,1757.21054,62.80893Z"/><path class="cls-1" d="M1714.10408,67.88376c-.05992-2.2653-.09574-6.44492.4245-7.29906.50347-.82642,1.23224,2.28634,2.16907,4.81856a5.13029,5.13029,0,0,1,1.90424-.481c3.84192-.18052,6.50742,4.212,7.18846,5.33405a13.98267,13.98267,0,0,1,1.42592,10.51613c-.36477,1.56929-.83356,3.45962-2.49736,4.44513a5.16866,5.16866,0,0,1-3.58765.47833c-4.46542-.86529-6.53314-6.65841-6.8617-7.57952C1713.29291,75.37992,1712.5748,70.88287,1714.10408,67.88376Z"/><path class="cls-1" d="M1773.3287,64.9398a4.94389,4.94389,0,0,1,1.543.34257c1.17327-2.58166,2.06809-6.9704,2.65425-6.00689.72,1.18385.36915,8.77013.36915,8.77013l-.00581.00019c1.43621,2.99883.72677,7.39709-.23654,10.09078-.32933.92092-2.40076,6.7129-6.86656,7.57524a5.16982,5.16982,0,0,1-3.58756-.48061c-1.66313-.98666-2.13068-2.87727-2.4945-4.44666a13.98271,13.98271,0,0,1,1.43287-10.51528C1766.81862,69.14763,1769.48688,64.7568,1773.3287,64.9398Z"/><path class="cls-1" d="M1741.83954,71.78645a8.779,8.779,0,0,1,8.411.03544c4.3149,2.70332,1.21547,8.17359,5.65508,15.953,3.2709,5.73187,6.99907,6.347,7.53665,11.48155.092.88043.46822,4.4738-1.88252,6.94125a7.87333,7.87333,0,0,1-4.93993,2.20575c-5.227.53586-6.42149-3.82715-11.21167-3.73913-4.00682.07373-4.55944,3.15154-10.152,3.41142-3.40475.15833-4.84582-.90587-5.18448-1.172-2.22042-1.74515-2.36866-4.797-2.406-5.56392-.23263-4.79,3.28805-6.63392,6.73129-12.64539C1739.55005,79.69739,1737.075,74.38117,1741.83954,71.78645Z"/><path class="cls-2" d="M1741.74786,60.47211a5.75206,5.75206,0,0,1-3.99291.53234c-4.96985-.96284-7.271-7.41071-7.63687-8.43566-1.33465-3.73913-2.23728-10.434,1.39315-13.36826.058-.04687.17157-.13366.31742-.23511-.07507-2.39019-.17262-7.88284.471-8.93971.75954-1.24682,1.96578,5.31156,3.57451,7.90323,3.77047.47327,6.36489,4.73645,7.06614,5.892a15.56238,15.56238,0,0,1,1.5871,11.70389C1744.12137,57.27142,1743.59971,59.37524,1741.74786,60.47211Z"/><path class="cls-2" d="M1760.80483,61.01178a5.75184,5.75184,0,0,1-3.99253-.53491c-1.85118-1.09792-2.37151-3.20221-2.77638-4.949a15.56188,15.56188,0,0,1,1.59453-11.70285c.72354-1.19061,3.46086-5.67937,7.42119-5.91715,1.6013-2.61025,2.80592-9.11385,3.56165-7.87122.66514,1.09344.534,6.94172.45765,9.18339,3.61786,2.94052,2.712,9.6257,1.37619,13.36092C1768.08055,53.60584,1765.77525,60.05218,1760.80483,61.01178Z"/><path class="cls-2" d="M1717.69837,66.08661c-.05992-2.26529-.09574-6.44492.4245-7.29906.50347-.82642,1.23225,2.28635,2.16907,4.81857a5.13029,5.13029,0,0,1,1.90424-.481c3.84192-.18053,6.50742,4.212,7.18846,5.334a13.98269,13.98269,0,0,1,1.42592,10.51614c-.36477,1.56929-.83356,3.45962-2.49736,4.44513a5.16869,5.16869,0,0,1-3.58765.47832c-4.46542-.86529-6.53314-6.65841-6.8617-7.57952C1716.8872,73.58277,1716.16909,69.08572,1717.69837,66.08661Z"/><path class="cls-2" d="M1776.923,63.14266a4.94333,4.94333,0,0,1,1.543.34257c1.17327-2.58167,2.06809-6.9704,2.65425-6.0069.72,1.18385.36915,8.77013.36915,8.77013l-.00581.0002c1.43621,2.99882.72677,7.39708-.23654,10.09078-.32933.92092-2.40076,6.7129-6.86656,7.57523a5.16976,5.16976,0,0,1-3.58756-.48061c-1.66313-.98665-2.13068-2.87727-2.4945-4.44665a13.98271,13.98271,0,0,1,1.43287-10.51528C1770.41291,67.35048,1773.08117,62.95965,1776.923,63.14266Z"/><path class="cls-2" d="M1745.43383,69.98931a8.779,8.779,0,0,1,8.411.03543c4.3149,2.70332,1.21547,8.17359,5.65508,15.953,3.2709,5.73186,6.99907,6.347,7.53665,11.48154.092.88044.46822,4.47381-1.88252,6.94125a7.87333,7.87333,0,0,1-4.93993,2.20575c-5.227.53586-6.42149-3.82715-11.21167-3.73913-4.00682.07374-4.55944,3.15154-10.152,3.41142-3.40475.15833-4.84582-.90587-5.18448-1.172-2.22042-1.74514-2.36865-4.797-2.406-5.56391-.23263-4.79,3.28805-6.63393,6.73129-12.64539C1743.14434,77.90025,1740.66928,72.584,1745.43383,69.98931Z"/><path class="cls-1" d="M1428.33737,63.768c-.04033-1.74281-.05692-4.95813.34549-5.6138.38943-.63446.942,1.762,1.65621,3.71245a10.94465,10.94465,0,0,1,1.35728.54717c2.38867,1.15435,3.66256,2.85371,5.98136,6.0256,3.33338,4.55969,3.70277,5.10886,4.78066,6.02117.55714.4715,3.75225,3.17591,4.79393,2.41909.39108-.28415.81107-1.29768-3.55784-12.02023-3.03443-7.44745-5.53167-12.5904-3.69527-14.34257a1.81124,1.81124,0,0,1,.23668-.19055c-.1316-1.83489-.37637-6.054.08576-6.88618.54535-.98185,1.67515,4.02207,2.99182,5.96445a10.02262,10.02262,0,0,1,1.6348,1.05093c3.93628,3.11192,3.67591,7.82207,5.95038,14.43047.82994,2.4113,2.96027,8.601,4.77181,8.42256,1.62343-.15988,2.62476-5.39744,6.06542-16.78761a12.53019,12.53019,0,0,1,3.62421-5.99021,10.67312,10.67312,0,0,1,1.51507-1.10513c.95923-3.16127,2.03683-6.22557,2.61527-6.16589.0507.00523.09907.04373.14511.12.50872.8429.39277,5.34148.32823,7.06572a14.5824,14.5824,0,0,1,.18583,3.70506,14.928,14.928,0,0,1-1.2184,4.79835c-4.30263,10.11253-7.26528,17.07552-6.06984,17.98831.99228.75768,5.0099-2.53071,7.22187-4.77623,3.60934-3.664,4.91885-7.09708,9.641-9.57017.56774-.29735,1.05075-.51061,1.37062-.64448.90916-1.98291,1.609-5.35682,2.05742-4.614.55067.91245.26124,6.74756.26124,6.74756l-.0044.00021a11.41063,11.41063,0,0,1-.09607,2.1261c-.58467,4.1772-3.37752,6.94418-4.83375,8.38717-7.963,7.89041-11.94446,11.83562-12.05119,11.96271-4.1761,4.9697-4.92319,7.7178-8.68755,8.904a10.82912,10.82912,0,0,1-6.47021-.049c-3.50134-1.18067-4.81078-3.85328-7.65988-7.73832-7.41195-10.1069-12.056-10.40571-14.342-18.06352A22.70219,22.70219,0,0,1,1428.33737,63.768Z"/><path class="cls-2" d="M1431.33737,62.768c-.04033-1.74281-.05692-4.95813.34549-5.6138.38943-.63446.942,1.762,1.65621,3.71245a10.94465,10.94465,0,0,1,1.35728.54717c2.38867,1.15435,3.66256,2.85371,5.98136,6.0256,3.33338,4.55969,3.70277,5.10886,4.78066,6.02117.55714.4715,3.75225,3.17591,4.79393,2.41909.39108-.28415.81107-1.29768-3.55784-12.02023-3.03443-7.44745-5.53167-12.5904-3.69527-14.34257a1.81124,1.81124,0,0,1,.23668-.19055c-.1316-1.83489-.37637-6.054.08576-6.88618.54535-.98185,1.67515,4.02207,2.99182,5.96445a10.02262,10.02262,0,0,1,1.6348,1.05093c3.93628,3.11192,3.67591,7.82207,5.95038,14.43047.82994,2.4113,2.96027,8.601,4.77181,8.42256,1.62343-.15988,2.62476-5.39744,6.06542-16.78761a12.53019,12.53019,0,0,1,3.62421-5.99021,10.67312,10.67312,0,0,1,1.51507-1.10513c.95923-3.16127,2.03683-6.22557,2.61527-6.16589.0507.00523.09907.04373.14511.12.50872.8429.39277,5.34148.32823,7.06572a14.5824,14.5824,0,0,1,.18583,3.70506,14.928,14.928,0,0,1-1.2184,4.79835c-4.30263,10.11253-7.26528,17.07552-6.06984,17.98831.99228.75768,5.0099-2.53071,7.22187-4.77623,3.60934-3.664,4.91885-7.09708,9.641-9.57017.56774-.29735,1.05075-.51061,1.37062-.64448.90916-1.98291,1.609-5.35682,2.05742-4.614.55067.91245.26124,6.74756.26124,6.74756l-.0044.00021a11.41063,11.41063,0,0,1-.09607,2.1261c-.58467,4.1772-3.37752,6.94418-4.83375,8.38717-7.963,7.89041-11.94446,11.83562-12.05119,11.96271-4.1761,4.9697-4.92319,7.7178-8.68755,8.904a10.82912,10.82912,0,0,1-6.47021-.049c-3.50134-1.18067-4.81078-3.85328-7.65988-7.73832-7.41195-10.1069-12.056-10.40571-14.342-18.06352A22.70219,22.70219,0,0,1,1431.33737,62.768Z"/><g id="chicken-3" data-name="chicken"><path class="cls-1" d="M1343.33836,70.10431c1.29346-.69561,3.8559-.93435,10.69541,2.754,5.68323,3.06483,7.77962,5.31435,8.81651,4.57678,1.117-.79455-.08243-4.282-.65045-5.93385-1.6912-4.91774-3.76431-6.00791-6.11864-11.57055-2.29534-5.42317-1.31227-6.72-1.00376-7.04995a2.93287,2.93287,0,0,1,2.23222-.70662c2.8.18116,5.02546,3.71207,8.70416,11.98,4.61921,10.382,5.06985,13.71432,6.82525,13.80276,3.47411.17507,6.633-12.61861,11.6829-13.5219a3.33735,3.33735,0,0,1,2.58552.40949c1.14246.88152,1.0818,2.69527,1.05994,3.34832-.13946,4.16585-3.67986,6.17216-7.21847,12.10865-2.56243,4.29878-3.88873,6.5238-4.22347,9.93261-.25521,2.59888.14743,5.057-1.58176,6.64047a3.98564,3.98564,0,0,1-3.34832,1.05993c-1.7121-.36978-2.38372-2.18266-3.99877-4.87391a56.226,56.226,0,0,0-4.35208-5.99c-5.41552-6.61151-15.48026-9.24653-16.5169-9.50686-2.06307-.51817-5.357-1.12707-5.87767-3.05118a3.869,3.869,0,0,1,.40948-2.58552A4.89654,4.89654,0,0,1,1343.33836,70.10431Z"/><path class="cls-1" d="M1389.693,65.254s-2.176-2.995-4.40825-2.28838c-.14837.047-.40332.11192-.48526.00507-.24924-.32518,1.26147-2.11493,3.12695-3.29722.3281-.208,2.68749-1.70327,3.34832-1.05993.19131.18622.16882.48215-.40948,2.58552C1390.42321,62.80706,1390.2021,63.61107,1389.693,65.254Z"/><path class="cls-1" d="M1340.03769,74.82277s-.58471-3.65558,1.4917-4.73753c.138-.07192.364-.20661.34619-.34008-.05432-.40609-2.38839-.59981-4.54276-.11341-.37891.08553-3.10365.70071-3.11461,1.62292-.00319.267.22227.46,2.12015,1.53544C1337.78923,73.61229,1338.51473,74.02335,1340.03769,74.82277Z"/><path class="cls-1" d="M1352.91312,52.71011s1.96169-3.13959,4.23778-2.59049c.15129.03649.41015.08349.48443-.02881.22593-.34178-1.406-2.02172-3.34947-3.07092-.34181-.18455-2.79982-1.51154-3.41414-.82364-.17784.19912-.13475.49276.589,2.55063C1352.01391,50.32007,1352.29059,51.10669,1352.91312,52.71011Z"/></g><g id="chicken-4" data-name="chicken"><path class="cls-2" d="M1345.33836,68.10431c1.29346-.69561,3.8559-.93435,10.69541,2.754,5.68323,3.06483,7.77962,5.31435,8.81651,4.57678,1.117-.79455-.08243-4.282-.65045-5.93385-1.6912-4.91774-3.76431-6.00791-6.11864-11.57055-2.29534-5.42317-1.31227-6.72-1.00376-7.04995a2.93287,2.93287,0,0,1,2.23222-.70662c2.8.18116,5.02546,3.71207,8.70416,11.98,4.61921,10.382,5.06985,13.71432,6.82525,13.80276,3.47411.17507,6.633-12.61861,11.6829-13.5219a3.33735,3.33735,0,0,1,2.58552.40949c1.14246.88152,1.0818,2.69527,1.05994,3.34832-.13946,4.16585-3.67986,6.17216-7.21847,12.10865-2.56243,4.29878-3.88873,6.5238-4.22347,9.93261-.25521,2.59888.14743,5.057-1.58176,6.64047a3.98564,3.98564,0,0,1-3.34832,1.05993c-1.7121-.36978-2.38372-2.18266-3.99877-4.87391a56.226,56.226,0,0,0-4.35208-5.99c-5.41552-6.61151-15.48026-9.24653-16.5169-9.50686-2.06307-.51817-5.357-1.12707-5.87767-3.05118a3.869,3.869,0,0,1,.40948-2.58552A4.89654,4.89654,0,0,1,1345.33836,68.10431Z"/><path class="cls-2" d="M1391.693,63.254s-2.176-2.995-4.40825-2.28838c-.14837.047-.40332.11192-.48526.00507-.24924-.32518,1.26147-2.11493,3.12695-3.29722.3281-.208,2.68749-1.70327,3.34832-1.05993.19131.18622.16882.48215-.40948,2.58552C1392.42321,60.80706,1392.2021,61.61107,1391.693,63.254Z"/><path class="cls-2" d="M1342.03769,72.82277s-.58471-3.65558,1.4917-4.73753c.138-.07192.364-.20661.34619-.34008-.05432-.40609-2.38839-.59981-4.54276-.11341-.37891.08553-3.10365.70071-3.11461,1.62292-.00319.267.22227.46,2.12015,1.53544C1339.78923,71.61229,1340.51473,72.02335,1342.03769,72.82277Z"/><path class="cls-2" d="M1354.91312,50.71011s1.96169-3.13959,4.23778-2.59049c.15129.03649.41015.08349.48443-.02881.22593-.34178-1.406-2.02172-3.34947-3.07092-.34181-.18455-2.79982-1.51154-3.41414-.82364-.17784.19912-.13475.49276.589,2.55063C1354.01391,48.32007,1354.29059,49.10669,1354.91312,50.71011Z"/></g><g id="duck-3" data-name="duck"><path class="cls-1" d="M1248.684,78.24869c2.79967,2.3382,6.64441,5.46849,11.19162,5.30981a5.95628,5.95628,0,0,0,4.12536-1.47045c.66178-.67008,1.05793-1.4994,1.55705-4.11138a36.90468,36.90468,0,0,0,.82989-5.737c-.11185-5.41486-.06225-10.07262-.10383-13.74795-.01774-1.56686-.13986-12.35455,1.12725-12.49048.1991-.02136.63306.19872,1.44186,2.74071,2.46954,7.76172,1.16264,14.31958,1.89944,24.89515.23784,3.41383.63648,6.50014,2.94091,8.25072a7.03942,7.03942,0,0,0,4.18256,1.29886c7.93123.05477,13.452-11.78609,21.86845-14.30413.51014-.15262,1.16423-.31089,1.38465-.0286.6569.84134-3.2867,4.638-12.17588,14.10393-3.12848,3.33144-6.64037,6.32179-9.49237,9.89277-2.51678,3.15122-3.97238,5.51007-7.06684,6.38919a10.41916,10.41916,0,0,1-6.66529-.56458c-3.39738-1.39005-4.85688-3.91052-7.06627-6.78027-1.951-2.53411-5.54038-5.75757-12.71927-12.20448-6.026-5.41164-10.40633-8.67863-9.89277-9.49237.17385-.27543.83815-.15861,1.38465-.0286C1242.0166,71.25936,1244.48412,74.74107,1248.684,78.24869Z"/><path class="cls-1" d="M1277.84753,81.802a6.37252,6.37252,0,0,1-2.79791-1.32745c-3.40776-2.6869-2.334-7.10268-3.1697-19.32794-.31938-4.67234-.72392-7.651.00545-7.85323.79414-.22013,1.80228,3.16436,5.53316,7.73883,1.98643,2.43561,3.28687,4.03009,5.653,5.42421a16.36626,16.36626,0,0,0,9.74977,2.56911c1.41257-.13409,2.54334-.48117,2.76931-.0572.31475.59056-1.44966,2.07-4.06816,4.23976C1282.38585,80.77906,1280.44633,82.2869,1277.84753,81.802Z"/><path class="cls-1" d="M1259.60262,82.1789a6.37257,6.37257,0,0,0,2.7407-1.44185c3.29391-2.82533,2.03875-7.193,2.36891-19.44234.12618-4.68155.40737-7.67441-.32972-7.84631-.80255-.18715-1.67008,3.23608-5.20889,7.9607-1.88416,2.51556-3.11765,4.16238-5.42421,5.653a16.3663,16.3663,0,0,1-9.63537,2.96951c-1.41691-.07565-2.56105-.37574-2.76931.0572-.2901.603,1.53389,2.00835,4.23976,4.06816C1255.02593,81.34418,1257.02605,82.77064,1259.60262,82.1789Z"/></g><g id="duck-4" data-name="duck"><path class="cls-2" d="M1250.684,76.24869c2.79967,2.3382,6.64441,5.46849,11.19162,5.30981a5.95628,5.95628,0,0,0,4.12536-1.47045c.66178-.67008,1.05793-1.4994,1.55705-4.11138a36.90468,36.90468,0,0,0,.82989-5.737c-.11185-5.41486-.06225-10.07262-.10383-13.74795-.01774-1.56686-.13986-12.35455,1.12725-12.49048.1991-.02136.63306.19872,1.44186,2.74071,2.46954,7.76172,1.16264,14.31958,1.89944,24.89515.23784,3.41383.63648,6.50014,2.94091,8.25072a7.03942,7.03942,0,0,0,4.18256,1.29886c7.93123.05477,13.452-11.78609,21.86845-14.30413.51014-.15262,1.16423-.31089,1.38465-.0286.6569.84134-3.2867,4.638-12.17588,14.10393-3.12848,3.33144-6.64037,6.32179-9.49237,9.89277-2.51678,3.15122-3.97238,5.51007-7.06684,6.38919a10.41916,10.41916,0,0,1-6.66529-.56458c-3.39738-1.39005-4.85688-3.91052-7.06627-6.78027-1.951-2.53411-5.54038-5.75757-12.71927-12.20448-6.026-5.41164-10.40633-8.67863-9.89277-9.49237.17385-.27543.83815-.15861,1.38465-.0286C1244.0166,69.25936,1246.48412,72.74107,1250.684,76.24869Z"/><path class="cls-2" d="M1279.84753,79.802a6.37252,6.37252,0,0,1-2.79791-1.32745c-3.40776-2.6869-2.334-7.10268-3.1697-19.32794-.31938-4.67234-.72392-7.651.00545-7.85323.79414-.22013,1.80228,3.16436,5.53316,7.73883,1.98643,2.43561,3.28687,4.03009,5.653,5.42421a16.36626,16.36626,0,0,0,9.74977,2.56911c1.41257-.13409,2.54334-.48117,2.76931-.0572.31475.59056-1.44966,2.07-4.06816,4.23976C1284.38585,78.77906,1282.44633,80.2869,1279.84753,79.802Z"/><path class="cls-2" d="M1261.60262,80.1789a6.37257,6.37257,0,0,0,2.7407-1.44185c3.29391-2.82533,2.03875-7.193,2.36891-19.44234.12618-4.68155.40737-7.67441-.32972-7.84631-.80255-.18715-1.67008,3.23608-5.20889,7.9607-1.88416,2.51556-3.11765,4.16238-5.42421,5.653a16.3663,16.3663,0,0,1-9.63537,2.96951c-1.41691-.07565-2.56105-.37574-2.76931.0572-.2901.603,1.53389,2.00835,4.23976,4.06816C1257.02593,79.34418,1259.02605,80.77064,1261.60262,80.1789Z"/></g><g id="dog-5" data-name="dog"><path class="cls-1" d="M954.28734,25.374c6.03119-.46328,10.42661,6.31748,11.54941,8.04965,4.61479,7.11926,3.12052,14.53948,2.73279,16.46491-.50021,2.484-1.1488,5.47759-3.71837,7.10441a8.12991,8.12991,0,0,1-5.61772.91956c-7.06-1.15165-10.58093-10.16226-11.14071-11.59487-2.04186-5.22549-3.59765-14.64372,1.40707-18.94053A8.61532,8.61532,0,0,1,954.28734,25.374Z"/><path class="cls-1" d="M987.29822,24.40405c-6.048-.10837-10.0377,6.91876-11.05686,8.71387-4.18883,7.37793-2.26147,14.69762-1.76136,16.597.64519,2.45033,1.46842,5.40069,4.12908,6.87383a8.12994,8.12994,0,0,0,5.662.58814c6.98021-1.56418,9.966-10.766,10.44072-12.229,1.73152-5.33636,2.73165-14.82969-2.51672-18.82524A8.61533,8.61533,0,0,0,987.29822,24.40405Z"/><path class="cls-1" d="M1005.47991,52.7087c-5.489-.09835-9.10993,6.27928-10.03489,7.90847a19.958,19.958,0,0,0-1.59856,15.06293c.58555,2.22385,1.3327,4.90151,3.74743,6.23849a7.37846,7.37846,0,0,0,5.1387.53378c6.335-1.4196,9.04486-9.77089,9.47569-11.09867,1.57149-4.84313,2.47918-13.459-2.2841-17.08526A7.81915,7.81915,0,0,0,1005.47991,52.7087Z"/><path class="cls-1" d="M937.936,54.69329c5.47374-.42046,9.46289,5.73357,10.48192,7.30564A19.95807,19.95807,0,0,1,950.8981,76.942c-.454,2.25439-1.04261,4.9713-3.37469,6.44775a7.37836,7.37836,0,0,1-5.09848.83457c-6.40746-1.0452-9.60295-9.223-10.111-10.52317-1.85313-4.74251-3.26512-13.29023,1.277-17.18989A7.81908,7.81908,0,0,1,937.936,54.69329Z"/><path class="cls-1" d="M972.81672,68.08181c6.75241-.07846,11.4274,6.80853,16.20712,13.84979,2.65683,3.91394,7.3071,10.967,6.08331,19.08862-.2715,1.802-.80745,5.051-3.329,6.71661-.50622.33438-2.27135,1.38371-8.285.45319-6.3342-.98011-6.235-2.432-9.60226-2.4966-5.95631-.11435-7.41075,4.4065-13.01083,4.119a11.65524,11.65524,0,0,1-8.09-3.86715c-5.6438-6.85779,1.44414-20.4529,5.72407-26.55341C961.958,74.48307,966.39655,68.15642,972.81672,68.08181Z"/></g><g id="dog-6" data-name="dog"><path class="cls-2" d="M953.28734,21.374c6.03119-.46328,10.42661,6.31748,11.54941,8.04965,4.61479,7.11926,3.12052,14.53948,2.73279,16.46491-.50021,2.484-1.1488,5.47759-3.71837,7.10441a8.12991,8.12991,0,0,1-5.61772.91956c-7.06-1.15165-10.58093-10.16226-11.14071-11.59487-2.04186-5.22549-3.59765-14.64372,1.40707-18.94053A8.61532,8.61532,0,0,1,953.28734,21.374Z"/><path class="cls-2" d="M986.29822,20.40405c-6.048-.10837-10.0377,6.91876-11.05686,8.71387-4.18883,7.37793-2.26147,14.69762-1.76136,16.597.64519,2.45033,1.46842,5.40069,4.12908,6.87383a8.12994,8.12994,0,0,0,5.662.58814c6.98021-1.56418,9.966-10.766,10.44072-12.229,1.73152-5.33636,2.73165-14.82969-2.51672-18.82524A8.61533,8.61533,0,0,0,986.29822,20.40405Z"/><path class="cls-2" d="M1004.47991,48.7087c-5.489-.09835-9.10993,6.27928-10.03489,7.90847a19.958,19.958,0,0,0-1.59856,15.06293c.58555,2.22385,1.3327,4.90151,3.74743,6.23849a7.37846,7.37846,0,0,0,5.1387.53378c6.335-1.4196,9.04486-9.77089,9.47569-11.09867,1.57149-4.84313,2.47918-13.459-2.2841-17.08526A7.81915,7.81915,0,0,0,1004.47991,48.7087Z"/><path class="cls-2" d="M936.936,50.69329c5.47374-.42046,9.46289,5.73357,10.48192,7.30564A19.95807,19.95807,0,0,1,949.8981,72.942c-.454,2.25439-1.04261,4.9713-3.37469,6.44775a7.37836,7.37836,0,0,1-5.09848.83457c-6.40746-1.0452-9.60295-9.223-10.111-10.52317-1.85313-4.74251-3.26512-13.29023,1.277-17.18989A7.81908,7.81908,0,0,1,936.936,50.69329Z"/><path class="cls-2" d="M971.81672,64.08181c6.75241-.07846,11.4274,6.80853,16.20712,13.84979,2.65683,3.91394,7.3071,10.967,6.08331,19.08862-.2715,1.802-.80745,5.051-3.329,6.71661-.50622.33438-2.27135,1.38371-8.285.45319-6.3342-.98011-6.235-2.432-9.60226-2.4966-5.95631-.11435-7.41075,4.4065-13.01083,4.119a11.65524,11.65524,0,0,1-8.09-3.86715c-5.6438-6.85779,1.44414-20.4529,5.72407-26.55341C960.958,70.48307,965.39655,64.15642,971.81672,64.08181Z"/></g><path class="cls-1" d="M867.72559,58.24534a5.75206,5.75206,0,0,0,3.99291.53234c4.96985-.96284,7.271-7.41071,7.63687-8.43566,1.33465-3.73913,2.23728-10.434-1.39315-13.36826-.058-.04687-.17157-.13366-.31742-.23511.07507-2.39019.17262-7.88284-.471-8.93971-.75955-1.24682-1.96578,5.31156-3.57451,7.90323-3.77047.47327-6.3649,4.73645-7.06614,5.892a15.5624,15.5624,0,0,0-1.58711,11.70389C865.35208,55.04465,865.87375,57.14847,867.72559,58.24534Z"/><path class="cls-1" d="M848.66862,58.785a5.75184,5.75184,0,0,0,3.99253-.53491c1.85118-1.09792,2.37151-3.20221,2.77639-4.949A15.5619,15.5619,0,0,0,853.843,41.59827c-.72353-1.19061-3.46086-5.67937-7.42119-5.91715-1.6013-2.61025-2.80591-9.11385-3.56165-7.87122-.66513,1.09344-.534,6.94172-.45765,9.18339-3.61785,2.94052-2.712,9.6257-1.37619,13.36092C841.3929,51.37906,843.6982,57.82541,848.66862,58.785Z"/><path class="cls-1" d="M891.77508,63.85984c.05992-2.26529.09574-6.44492-.4245-7.29906-.50347-.82642-1.23224,2.28634-2.16907,4.81857a5.13,5.13,0,0,0-1.90424-.481c-3.84192-.18053-6.50741,4.212-7.18846,5.334a13.98274,13.98274,0,0,0-1.42592,10.51614c.36477,1.56929.83357,3.45962,2.49736,4.44513a5.16872,5.16872,0,0,0,3.58766.47832c4.46542-.86529,6.53313-6.65841,6.8617-7.57952C892.58626,71.356,893.30436,66.85895,891.77508,63.85984Z"/><path class="cls-1" d="M832.55046,60.91589a4.9432,4.9432,0,0,0-1.543.34257c-1.17328-2.58167-2.0681-6.9704-2.65426-6.0069-.72,1.18385-.36915,8.77013-.36915,8.77013l.00581.00019c-1.4362,2.99883-.72677,7.39709.23654,10.09079.32933.92092,2.40076,6.7129,6.86656,7.57523a5.16976,5.16976,0,0,0,3.58756-.48061c1.66313-.98665,2.13069-2.87727,2.4945-4.44665a13.98273,13.98273,0,0,0-1.43287-10.51529C839.06054,65.12371,836.39228,60.73288,832.55046,60.91589Z"/><path class="cls-1" d="M864.03962,67.76254a8.779,8.779,0,0,0-8.411.03543c-4.31491,2.70332-1.21548,8.17359-5.65509,15.953-3.2709,5.73187-6.99907,6.347-7.53665,11.48155-.092.88043-.46822,4.47381,1.88252,6.94125a7.87335,7.87335,0,0,0,4.93994,2.20575c5.227.53586,6.42148-3.82715,11.21166-3.73913,4.00682.07374,4.55945,3.15154,10.152,3.41142,3.40475.15833,4.84581-.90587,5.18448-1.172,2.22042-1.74514,2.36865-4.797,2.406-5.56391.23264-4.79-3.288-6.63393-6.73128-12.64539C866.32911,75.67348,868.80418,70.35725,864.03962,67.76254Z"/><path class="cls-2" d="M864.1313,56.44819a5.75206,5.75206,0,0,0,3.99291.53234c4.96985-.96284,7.271-7.41071,7.63687-8.43566,1.33465-3.73913,2.23728-10.434-1.39315-13.36826-.058-.04687-.17157-.13365-.31742-.23511.07507-2.39018.17262-7.88284-.471-8.9397C872.82,24.755,871.61375,31.31336,870.005,33.905c-3.77047.47328-6.3649,4.73645-7.06614,5.892a15.56235,15.56235,0,0,0-1.58711,11.70389C861.75779,53.2475,862.27946,55.35132,864.1313,56.44819Z"/><path class="cls-2" d="M845.07433,56.98787a5.752,5.752,0,0,0,3.99253-.53491c1.85118-1.09792,2.37151-3.20222,2.77639-4.949a15.56188,15.56188,0,0,0-1.59454-11.70284c-.72353-1.19062-3.46086-5.67938-7.42119-5.91716-1.6013-2.61024-2.80591-9.11385-3.56165-7.87122-.66513,1.09345-.534,6.94173-.45765,9.18339-3.61785,2.94053-2.712,9.6257-1.37619,13.36093C837.79861,49.58192,840.10391,56.02827,845.07433,56.98787Z"/><path class="cls-2" d="M888.18079,62.06269c.05992-2.26529.09574-6.44492-.4245-7.29906-.50347-.82641-1.23224,2.28635-2.16907,4.81857a5.13024,5.13024,0,0,0-1.90424-.481c-3.84192-.18052-6.50741,4.212-7.18846,5.334a13.98269,13.98269,0,0,0-1.42592,10.51614c.36477,1.56929.83357,3.45962,2.49736,4.44513a5.16858,5.16858,0,0,0,3.58765.47832c4.46543-.86528,6.53314-6.6584,6.86171-7.57951C888.992,69.55886,889.71007,65.06181,888.18079,62.06269Z"/><path class="cls-2" d="M828.95617,59.11874a4.94376,4.94376,0,0,0-1.543.34257c-1.17328-2.58166-2.0681-6.9704-2.65426-6.00689-.72,1.18385-.36915,8.77013-.36915,8.77013l.00581.00019c-1.4362,2.99883-.72677,7.39709.23654,10.09078.32933.92092,2.40076,6.7129,6.86656,7.57523a5.16974,5.16974,0,0,0,3.58756-.4806c1.66313-.98666,2.13069-2.87727,2.4945-4.44666a13.98271,13.98271,0,0,0-1.43287-10.51528C835.46625,63.32657,832.798,58.93574,828.95617,59.11874Z"/><path class="cls-2" d="M860.44533,65.96539a8.779,8.779,0,0,0-8.411.03544c-4.31491,2.70331-1.21548,8.17359-5.65509,15.953-3.2709,5.73187-6.99907,6.347-7.53665,11.48155-.092.88043-.46822,4.4738,1.88252,6.94124a7.87329,7.87329,0,0,0,4.93994,2.20575c5.227.53587,6.42148-3.82715,11.21166-3.73912,4.00682.07373,4.55945,3.15153,10.152,3.41142,3.40475.15832,4.84581-.90587,5.18447-1.172,2.22043-1.74515,2.36866-4.797,2.406-5.56392.23264-4.79-3.288-6.63392-6.73128-12.64539C862.73482,73.87633,865.20988,68.56011,860.44533,65.96539Z"/><path class="cls-1" d="M1079.51514,60.24534a5.75206,5.75206,0,0,1-3.99291.53234c-4.96984-.96284-7.271-7.41071-7.63686-8.43566-1.33466-3.73913-2.23729-10.434,1.39314-13.36826.058-.04687.17157-.13366.31742-.23511-.07507-2.39019-.17262-7.88284.471-8.93971.75954-1.24682,1.96578,5.31156,3.57451,7.90323,3.77047.47327,6.3649,4.73645,7.06614,5.892a15.56233,15.56233,0,0,1,1.5871,11.70389C1081.88866,57.04465,1081.367,59.14847,1079.51514,60.24534Z"/><path class="cls-1" d="M1098.57211,60.785a5.75184,5.75184,0,0,1-3.99253-.53491c-1.85117-1.09792-2.37151-3.20221-2.77638-4.949a15.56188,15.56188,0,0,1,1.59453-11.70285c.72354-1.19061,3.46086-5.67937,7.42119-5.91715,1.6013-2.61025,2.80592-9.11385,3.56165-7.87122.66514,1.09344.534,6.94172.45765,9.18339,3.61786,2.94052,2.712,9.6257,1.37619,13.36092C1105.84783,53.37906,1103.54253,59.82541,1098.57211,60.785Z"/><path class="cls-1" d="M1055.46565,65.85984c-.05992-2.26529-.09574-6.44492.4245-7.29906.50348-.82642,1.23225,2.28634,2.16908,4.81857a5.13,5.13,0,0,1,1.90424-.481c3.84191-.18053,6.50741,4.212,7.18846,5.334a13.98272,13.98272,0,0,1,1.42591,10.51614c-.36477,1.56929-.83356,3.45962-2.49735,4.44513a5.16872,5.16872,0,0,1-3.58766.47832c-4.46542-.86529-6.53313-6.65841-6.8617-7.57952C1054.65448,73.356,1053.93638,68.85895,1055.46565,65.85984Z"/><path class="cls-1" d="M1114.69027,62.91589a4.94333,4.94333,0,0,1,1.543.34257c1.17328-2.58167,2.06809-6.9704,2.65426-6.0069.72,1.18385.36915,8.77013.36915,8.77013l-.00582.00019c1.43621,2.99883.72678,7.39709-.23654,10.09079-.32933.92092-2.40075,6.7129-6.86656,7.57523a5.16976,5.16976,0,0,1-3.58756-.48061c-1.66312-.98665-2.13068-2.87727-2.4945-4.44665a13.98275,13.98275,0,0,1,1.43288-10.51529C1108.18019,67.12371,1110.84845,62.73288,1114.69027,62.91589Z"/><path class="cls-1" d="M1083.20111,69.76254a8.779,8.779,0,0,1,8.411.03543c4.3149,2.70332,1.21548,8.17359,5.65508,15.953,3.2709,5.73187,6.99908,6.347,7.53665,11.48155.092.88043.46823,4.47381-1.88252,6.94125a7.87333,7.87333,0,0,1-4.93993,2.20575c-5.227.53586-6.42149-3.82715-11.21166-3.73913-4.00682.07374-4.55945,3.15154-10.152,3.41142-3.40475.15833-4.84581-.90587-5.18448-1.172-2.22042-1.74514-2.36865-4.797-2.406-5.56391-.23263-4.79,3.28805-6.63393,6.73129-12.64539C1080.91162,77.67348,1078.43656,72.35725,1083.20111,69.76254Z"/><path class="cls-2" d="M1083.10943,58.44819a5.75206,5.75206,0,0,1-3.99291.53234c-4.96984-.96284-7.271-7.41071-7.63686-8.43566-1.33466-3.73913-2.23729-10.434,1.39314-13.36826.058-.04687.17157-.13365.31742-.23511-.07507-2.39018-.17262-7.88284.471-8.9397.75954-1.24682,1.96578,5.31156,3.57451,7.90322,3.77047.47328,6.3649,4.73645,7.06614,5.892a15.56233,15.56233,0,0,1,1.5871,11.70389C1085.483,55.2475,1084.96128,57.35132,1083.10943,58.44819Z"/><path class="cls-2" d="M1102.1664,58.98787a5.752,5.752,0,0,1-3.99253-.53491c-1.85117-1.09792-2.37151-3.20222-2.77638-4.949a15.56183,15.56183,0,0,1,1.59454-11.70284c.72353-1.19062,3.46085-5.67938,7.42118-5.91716,1.6013-2.61024,2.80592-9.11385,3.56165-7.87122.66514,1.09345.53406,6.94173.45765,9.18339,3.61786,2.94053,2.712,9.6257,1.37619,13.36093C1109.44213,51.58192,1107.13682,58.02827,1102.1664,58.98787Z"/><path class="cls-2" d="M1059.06,64.06269c-.05993-2.26529-.09575-6.44492.42449-7.29906.50348-.82641,1.23225,2.28635,2.16908,4.81857a5.13019,5.13019,0,0,1,1.90424-.481c3.84191-.18052,6.50741,4.212,7.18846,5.334a13.98272,13.98272,0,0,1,1.42591,10.51614c-.36476,1.56929-.83356,3.45962-2.49735,4.44513a5.16861,5.16861,0,0,1-3.58766.47832c-4.46542-.86528-6.53313-6.6584-6.8617-7.57951C1058.24877,71.55886,1057.53067,67.06181,1059.06,64.06269Z"/><path class="cls-2" d="M1118.28456,61.11874a4.94389,4.94389,0,0,1,1.543.34257c1.17328-2.58166,2.06809-6.9704,2.65426-6.00689.72,1.18385.36915,8.77013.36915,8.77013l-.00582.00019c1.43621,2.99883.72678,7.39709-.23654,10.09078-.32933.92092-2.40075,6.7129-6.86656,7.57523a5.16974,5.16974,0,0,1-3.58756-.4806c-1.66312-.98666-2.13068-2.87727-2.4945-4.44666a13.98273,13.98273,0,0,1,1.43288-10.51528C1111.77448,65.32657,1114.44274,60.93574,1118.28456,61.11874Z"/><path class="cls-2" d="M1086.7954,67.96539a8.779,8.779,0,0,1,8.411.03544c4.3149,2.70331,1.21548,8.17359,5.65508,15.953,3.27091,5.73187,6.99908,6.347,7.53665,11.48155.092.88043.46823,4.4738-1.88252,6.94124a7.87327,7.87327,0,0,1-4.93993,2.20575c-5.227.53587-6.42148-3.82715-11.21166-3.73912-4.00682.07373-4.55945,3.15153-10.152,3.41142-3.40475.15832-4.84581-.90587-5.18448-1.172-2.22042-1.74515-2.36865-4.797-2.406-5.56392-.23264-4.79,3.288-6.63392,6.73128-12.64539C1084.50592,75.87633,1082.03085,70.56011,1086.7954,67.96539Z"/><g id="rabbit-5" data-name="rabbit"><path class="cls-1" d="M773.39981,41.44759a4.53754,4.53754,0,0,0,3.0681-.20743c3.57148-1.47426,4.31488-6.64668,4.43305-7.46906.43109-2.99971.09075-8.14472-3.07031-9.789a4.652,4.652,0,0,0-2.76431-.46465c-3.3677.51962-4.872,5.0204-5.08445,5.65465C768.41027,33.86588,769.90049,40.30363,773.39981,41.44759Z"/><path class="cls-1" d="M761.86273,42.50158a4.53739,4.53739,0,0,1-3.03605-.48849c-3.42091-1.79621-3.68586-7.01506-3.728-7.84481-.15361-3.02663.65807-8.1186,3.95684-9.46542a4.65216,4.65216,0,0,1,2.79532-.20867c3.3057.82689,4.39005,5.44686,4.54332,6.098C767.52785,35.41045,765.45236,41.684,761.86273,42.50158Z"/><path class="cls-1" d="M753.4646,52.89852a3.6991,3.6991,0,0,1-2.506.06832c-3.01231-.921-4.01464-5.06154-4.174-5.71985-.58126-2.40128-.70193-6.60318,1.73672-8.18148a3.79263,3.79263,0,0,1,2.20765-.59035c2.77328.16194,4.34134,3.69869,4.56269,4.19706C756.92921,46.36039,756.21637,51.70016,753.4646,52.89852Z"/><path class="cls-1" d="M784.0402,54.13522a4.22659,4.22659,0,0,0,2.84407.34085c3.524-.73158,5.09908-5.33724,5.34949-6.06951.91345-2.671,1.49192-7.43905-1.11694-9.4908a4.33336,4.33336,0,0,0-2.44976-.90345c-3.17229-.10694-5.32769,3.75236-5.63186,4.29613C780.78481,46.33271,781.03521,52.48287,784.0402,54.13522Z"/><path class="cls-1" d="M771.88167,47.26171c-.25223-.124-4.149-1.969-7.90921-.36417-2.39072,1.02033-2.92137,2.66489-6.69154,7.61788-3.14961,4.13786-4.05681,4.66856-5.03686,6.10888-4.10014,6.02569.95138,12.64766,9.3249,38.47406,1.24845,3.85082,3.6216,11.36948,8.9084,13.09175a5.22247,5.22247,0,0,0,3.16368.14566c3.2929-1.02151,4.43448-5.89441,5.18253-9.27256,2.35685-10.64434,3.851-18.989,4.11052-20.41829,2.59655-14.29544,5.42234-17.9607,2.60151-22.073-1.79792-2.62114-3.50691-1.94982-7.61789-6.69154C774.89746,50.39675,774.55577,48.57615,771.88167,47.26171Z"/></g><g id="rabbit-6" data-name="rabbit"><path class="cls-2" d="M770.73434,39.28317a4.53752,4.53752,0,0,0,3.0681-.20743c3.57149-1.47426,4.31489-6.64668,4.43306-7.46906.43108-2.9997.09075-8.14472-3.07031-9.789a4.65208,4.65208,0,0,0-2.76431-.46465c-3.3677.51962-4.872,5.0204-5.08445,5.65465C765.74481,31.70146,767.235,38.13921,770.73434,39.28317Z"/><path class="cls-2" d="M759.19727,40.33716a4.53751,4.53751,0,0,1-3.03606-.48848c-3.4209-1.79621-3.68585-7.01506-3.72795-7.84482-.15361-3.02663.65806-8.1186,3.95684-9.46541a4.652,4.652,0,0,1,2.79531-.20868c3.3057.82689,4.39,5.44686,4.54332,6.098C764.86239,33.246,762.7869,39.5196,759.19727,40.33716Z"/><path class="cls-2" d="M750.79914,50.7341a3.6991,3.6991,0,0,1-2.506.06832c-3.01231-.921-4.01465-5.06153-4.174-5.71985-.58126-2.40128-.70193-6.60318,1.73672-8.18148a3.7926,3.7926,0,0,1,2.20765-.59035c2.77327.16194,4.34133,3.69869,4.56269,4.19706C754.26375,44.196,753.5509,49.53574,750.79914,50.7341Z"/><path class="cls-2" d="M781.37474,51.9708a4.22652,4.22652,0,0,0,2.84407.34085c3.524-.73158,5.09908-5.33724,5.34949-6.06951.91345-2.671,1.49191-7.43905-1.11694-9.4908a4.3334,4.3334,0,0,0-2.44977-.90345c-3.17229-.10693-5.32768,3.75236-5.63185,4.29613C778.11935,44.16829,778.36974,50.31845,781.37474,51.9708Z"/><path class="cls-2" d="M769.21621,45.09729c-.25223-.124-4.149-1.969-7.90921-.36417-2.39072,1.02034-2.92137,2.66489-6.69154,7.61788-3.14961,4.13787-4.05681,4.66856-5.03686,6.10888-4.10015,6.02569.95138,12.64766,9.3249,38.47406,1.24845,3.85082,3.62159,11.36948,8.9084,13.09175a5.22247,5.22247,0,0,0,3.16368.14566c3.2929-1.02151,4.43448-5.89441,5.18253-9.27256,2.35685-10.64433,3.851-18.989,4.11052-20.41829,2.59655-14.29544,5.42233-17.9607,2.6015-22.073-1.79792-2.62114-3.50691-1.94982-7.61788-6.69154C772.232,48.23233,771.89031,46.41173,769.21621,45.09729Z"/></g><g id="rabbit-7" data-name="rabbit"><path class="cls-1" d="M1178.37227,41.44759a4.53753,4.53753,0,0,1-3.0681-.20743c-3.57149-1.47426-4.31489-6.64668-4.43306-7.46906-.43108-2.99971-.09075-8.14472,3.07031-9.789a4.65208,4.65208,0,0,1,2.76431-.46465c3.3677.51962,4.872,5.0204,5.08445,5.65465C1183.3618,33.86588,1181.87158,40.30363,1178.37227,41.44759Z"/><path class="cls-1" d="M1189.90934,42.50158a4.53742,4.53742,0,0,0,3.03606-.48849c3.42091-1.79621,3.68586-7.01506,3.728-7.84481.15361-3.02663-.65807-8.1186-3.95685-9.46542a4.65212,4.65212,0,0,0-2.79531-.20867c-3.3057.82689-4.39,5.44686-4.54332,6.098C1184.24422,35.41045,1186.31972,41.684,1189.90934,42.50158Z"/><path class="cls-1" d="M1198.30748,52.89852a3.69911,3.69911,0,0,0,2.506.06832c3.01231-.921,4.01464-5.06154,4.174-5.71985.58126-2.40128.70193-6.60318-1.73672-8.18148a3.79256,3.79256,0,0,0-2.20764-.59035c-2.77328.16194-4.34134,3.69869-4.56269,4.19706C1194.84286,46.36039,1195.55571,51.70016,1198.30748,52.89852Z"/><path class="cls-1" d="M1167.73187,54.13522a4.22658,4.22658,0,0,1-2.84407.34085c-3.524-.73158-5.09908-5.33724-5.34949-6.06951-.91344-2.671-1.49191-7.43905,1.117-9.4908a4.33332,4.33332,0,0,1,2.44976-.90345c3.17229-.10694,5.32769,3.75236,5.63185,4.29613C1170.98727,46.33271,1170.73687,52.48287,1167.73187,54.13522Z"/><path class="cls-1" d="M1179.8904,47.26171c.25223-.124,4.149-1.969,7.90922-.36417,2.39071,1.02033,2.92137,2.66489,6.69154,7.61788,3.1496,4.13786,4.05681,4.66856,5.03686,6.10888,4.10014,6.02569-.95139,12.64766-9.32491,38.47406-1.24844,3.85082-3.62159,11.36948-8.90839,13.09175a5.2225,5.2225,0,0,1-3.16369.14566c-3.29289-1.02151-4.43447-5.89441-5.18253-9.27256-2.35684-10.64434-3.851-18.989-4.11051-20.41829-2.59656-14.29544-5.42234-17.9607-2.60151-22.073,1.79792-2.62114,3.50691-1.94982,7.61788-6.69154C1176.87461,50.39675,1177.2163,48.57615,1179.8904,47.26171Z"/></g><g id="rabbit-8" data-name="rabbit"><path class="cls-2" d="M1181.03773,39.28317a4.53753,4.53753,0,0,1-3.0681-.20743c-3.57149-1.47426-4.31488-6.64668-4.43305-7.46906-.43109-2.9997-.09075-8.14472,3.07031-9.789a4.652,4.652,0,0,1,2.76431-.46465c3.3677.51962,4.872,5.0204,5.08445,5.65465C1186.02727,31.70146,1184.53705,38.13921,1181.03773,39.28317Z"/><path class="cls-2" d="M1192.57481,40.33716a4.53747,4.53747,0,0,0,3.036-.48848c3.42091-1.79621,3.68586-7.01506,3.728-7.84482.15361-3.02663-.65807-8.1186-3.95684-9.46541a4.652,4.652,0,0,0-2.79532-.20868c-3.3057.82689-4.39,5.44686-4.54332,6.098C1186.90969,33.246,1188.98518,39.5196,1192.57481,40.33716Z"/><path class="cls-2" d="M1200.97294,50.7341a3.6991,3.6991,0,0,0,2.506.06832c3.01231-.921,4.01464-5.06153,4.174-5.71985.58125-2.40128.70193-6.60318-1.73673-8.18148a3.79256,3.79256,0,0,0-2.20764-.59035c-2.77328.16194-4.34134,3.69869-4.56269,4.19706C1197.50833,44.196,1198.22117,49.53574,1200.97294,50.7341Z"/><path class="cls-2" d="M1170.39734,51.9708a4.22653,4.22653,0,0,1-2.84407.34085c-3.524-.73158-5.09908-5.33724-5.3495-6.06951-.91344-2.671-1.49191-7.43905,1.11695-9.4908a4.33332,4.33332,0,0,1,2.44976-.90345c3.17229-.10693,5.32769,3.75236,5.63185,4.29613C1173.65273,44.16829,1173.40233,50.31845,1170.39734,51.9708Z"/><path class="cls-2" d="M1182.55586,45.09729c.25224-.124,4.149-1.969,7.90922-.36417,2.39072,1.02034,2.92137,2.66489,6.69154,7.61788,3.1496,4.13787,4.05681,4.66856,5.03686,6.10888,4.10014,6.02569-.95138,12.64766-9.32491,38.47406-1.24844,3.85082-3.62159,11.36948-8.90839,13.09175a5.22251,5.22251,0,0,1-3.16369.14566c-3.29289-1.02151-4.43447-5.89441-5.18252-9.27256-2.35685-10.64433-3.851-18.989-4.11052-20.41829-2.59655-14.29544-5.42234-17.9607-2.60151-22.073,1.79792-2.62114,3.50691-1.94982,7.61788-6.69154C1179.54007,48.23233,1179.88177,46.41173,1182.55586,45.09729Z"/></g></g></svg>