<?xml version="1.0" standalone="no"?>
<!DOCTYPE svg PUBLIC "-//W3C//DTD SVG 20010904//EN"
 "http://www.w3.org/TR/2001/REC-SVG-20010904/DTD/svg10.dtd">
<svg version="1.0" xmlns="http://www.w3.org/2000/svg"
 width="557.000000pt" height="557.000000pt" viewBox="0 0 557.000000 557.000000"
 preserveAspectRatio="xMidYMid meet">
<metadata>
Created by potrace 1.14, written by Peter Selinger 2001-2017
</metadata>
<g transform="translate(0.000000,557.000000) scale(0.100000,-0.100000)"
fill="#000000" stroke="none">
<path d="M3017 5305 c-86 -65 -149 -252 -196 -585 -11 -74 -22 -166 -26 -205
-3 -38 -8 -88 -10 -110 -19 -197 -32 -446 -36 -679 -2 -75 -5 -136 -8 -137 -3
0 -34 -2 -69 -4 -34 -2 -67 -7 -73 -11 -11 -6 -9 75 7 401 3 66 6 237 7 380 0
283 -6 321 -60 394 -81 107 -284 109 -462 4 -126 -75 -208 -195 -250 -363 -65
-265 -38 -418 79 -448 45 -11 110 -1 148 24 18 12 23 12 26 2 49 -168 97 -296
172 -463 3 -6 -34 -10 -98 -11 -182 -1 -306 -26 -476 -96 -71 -30 -77 -30
-186 -24 -144 8 -254 28 -363 65 -123 42 -147 45 -197 23 -65 -29 -79 -67 -82
-232 -1 -74 -6 -160 -11 -191 -13 -77 -7 -152 19 -234 18 -56 32 -80 72 -120
76 -76 202 -140 314 -160 52 -9 172 -54 267 -101 131 -65 231 -143 320 -249
56 -69 178 -190 250 -252 l50 -41 -125 -124 c-295 -293 -437 -452 -458 -516
-11 -31 -7 -62 7 -62 3 0 15 -7 25 -15 18 -14 18 -15 -6 -47 -56 -75 -76 -159
-46 -195 31 -38 125 -55 182 -33 30 11 30 12 12 -32 -19 -45 -25 -98 -13 -124
10 -23 46 -44 75 -44 25 0 119 46 172 84 l46 33 -6 -46 c-12 -93 18 -151 81
-156 43 -3 81 10 144 50 l50 31 2 -64 c3 -81 32 -146 71 -160 36 -12 80 -5
113 19 15 10 29 19 31 19 3 0 11 -26 18 -57 25 -115 72 -183 124 -183 24 0 64
25 84 52 12 16 16 13 40 -34 52 -99 130 -110 171 -25 23 48 47 139 56 212 12
101 9 98 63 46 62 -61 111 -84 156 -75 61 11 86 63 86 180 l0 73 64 -48 c155
-118 298 -96 279 42 l-5 37 54 -25 c69 -32 112 -32 143 0 30 29 32 67 6 134
l-18 49 57 -5 c64 -6 116 12 138 48 20 32 6 90 -38 153 l-38 54 33 6 c18 4 45
18 60 32 57 53 19 118 -182 314 -70 69 -182 172 -248 230 -161 141 -159 139
-154 143 2 2 36 24 74 49 39 25 113 86 165 137 52 51 121 112 152 136 57 43
80 53 213 95 137 44 215 93 363 228 99 91 139 154 145 227 6 62 -8 95 -87 214
-88 131 -118 191 -146 297 -31 114 -72 183 -176 295 -51 54 -97 113 -103 131
-40 125 2 277 106 385 55 56 69 91 45 115 -22 22 -61 8 -156 -56 -54 -36 -103
-66 -107 -66 -5 0 -10 9 -10 20 -1 11 -3 25 -4 30 -1 6 -3 14 -4 19 0 5 -14
14 -30 19 -35 12 -41 9 -101 -72 -67 -88 -170 -170 -285 -226 -105 -51 -259
-119 -262 -116 -1 1 4 20 12 41 40 117 97 374 110 500 4 33 9 71 12 85 13 61
11 487 -2 570 -29 178 -70 293 -130 359 -71 78 -156 92 -228 36z m136 -86 c51
-39 105 -189 124 -339 15 -118 8 -485 -11 -610 -35 -234 -92 -460 -152 -602
-21 -51 -71 -111 -140 -169 -8 -6 -29 1 -65 23 -30 18 -56 36 -59 40 -5 7 -5
22 4 313 7 183 11 272 21 380 2 33 7 94 10 135 5 73 13 150 20 200 2 14 7 50
10 80 5 48 35 218 51 290 3 14 7 36 10 49 11 54 65 178 89 204 31 32 53 34 88
6z m-706 -510 l22 -12 -36 -71 c-19 -39 -53 -99 -74 -134 -22 -35 -39 -66 -39
-69 0 -18 -154 -230 -208 -285 -100 -104 -170 -129 -194 -69 -33 83 15 345 83
460 36 59 109 122 184 157 108 51 193 59 262 23z m67 -326 c-4 -283 -18 -698
-28 -808 -3 -24 -11 -34 -47 -52 -24 -12 -47 -22 -50 -22 -8 -1 -68 123 -117
244 -22 55 -81 245 -88 283 -4 18 9 41 49 90 77 95 149 206 251 385 15 26 28
47 30 47 1 0 1 -75 0 -167z m1441 -483 c-18 -57 -25 -156 -14 -213 14 -75 45
-128 125 -211 93 -97 130 -150 154 -221 10 -30 17 -55 15 -55 -8 0 33 -106 64
-167 17 -34 60 -105 96 -158 86 -126 87 -171 7 -251 -177 -174 -276 -237 -432
-274 -108 -25 -188 -80 -350 -237 -47 -46 -102 -94 -122 -108 -59 -40 -145
-85 -161 -85 -17 0 -47 -37 -47 -57 0 -15 15 -30 85 -90 72 -60 92 -77 170
-146 38 -34 96 -86 130 -116 84 -74 265 -260 265 -271 0 -5 -8 -7 -17 -4 -65
22 -108 52 -183 130 -327 338 -489 494 -513 494 -30 0 -53 -26 -49 -54 4 -21
4 -21 -20 2 -30 27 -62 28 -81 2 -13 -18 -16 -19 -27 -5 -16 19 -54 19 -70 0
-9 -11 -13 -96 -16 -323 -1 -169 -5 -329 -8 -357 -2 -27 -7 -99 -11 -160 -3
-60 -8 -121 -10 -135 -2 -14 -6 -56 -10 -95 -13 -154 -42 -345 -57 -384 -12
-33 -20 -20 -53 81 -51 159 -53 192 -49 648 3 228 6 475 8 548 2 86 -1 137 -8
146 -17 22 -49 27 -70 11 -24 -18 -25 -49 -28 -686 -2 -389 0 -508 11 -559 13
-62 13 -67 -9 -113 -19 -39 -25 -46 -32 -33 -9 16 -32 117 -42 186 -29 198
-24 873 9 1165 6 51 -17 73 -74 73 -28 1 -53 -4 -57 -9 -3 -6 -12 -1 -21 11
-26 37 -61 23 -115 -48 -85 -109 -329 -452 -414 -583 -84 -127 -116 -159 -199
-193 -36 -16 -95 -22 -95 -10 0 23 99 157 205 280 97 111 176 196 371 396 123
125 152 161 149 179 -6 30 -16 38 -48 41 -16 1 -29 10 -33 20 -3 10 -20 27
-37 40 -83 57 -227 195 -318 303 -151 181 -363 305 -659 385 -225 61 -311 153
-311 330 0 41 3 86 7 100 3 14 8 79 9 145 2 66 4 128 4 137 2 36 33 38 121 7
139 -48 233 -65 422 -75 l126 -7 89 36 c48 19 114 43 146 52 139 40 337 51
449 26 44 -10 50 -9 150 38 165 78 244 85 353 32 139 -69 263 -247 289 -417 6
-41 5 -42 -33 -57 -44 -18 -57 -40 -35 -61 12 -13 19 -13 48 -1 l34 14 -1 -39
c-2 -38 -3 -40 -44 -46 -28 -4 -43 -12 -46 -25 -6 -23 17 -43 43 -36 27 7 34
-8 20 -43 -10 -25 -16 -28 -51 -25 -34 3 -42 0 -49 -18 -8 -23 14 -52 31 -41
5 3 13 2 19 -1 24 -15 -53 -107 -118 -139 -108 -55 -282 -12 -396 97 -28 27
-46 46 -41 44 6 -3 20 -1 32 4 16 6 21 13 16 26 -12 33 -5 32 -203 18 -185
-13 -237 -18 -370 -36 -125 -17 -157 -24 -232 -45 -23 -7 -30 -31 -13 -48 12
-11 23 -12 48 -5 17 5 46 12 62 14 17 3 41 7 55 10 39 7 80 13 140 20 30 3 66
8 80 10 24 3 111 11 243 20 51 4 58 2 56 -13 -4 -41 5 -54 69 -105 257 -207
540 -176 673 74 19 36 29 45 49 44 190 -12 408 -39 534 -67 28 -7 58 -10 66
-9 32 6 34 44 3 55 -20 8 -144 33 -204 41 -25 3 -57 8 -70 10 -44 7 -268 28
-311 29 -21 0 -22 7 -7 59 6 23 16 37 27 38 9 0 28 3 42 5 14 2 124 6 245 9
121 2 223 4 228 5 16 0 6 40 -14 50 -17 10 -342 8 -483 -3 -30 -2 -32 3 -27
87 1 9 39 19 129 34 199 33 203 34 466 37 210 3 250 5 258 18 5 10 3 21 -7 31
-14 13 -50 15 -263 11 -136 -2 -258 -6 -272 -8 -14 -3 -54 -8 -90 -12 -65 -6
-208 -33 -222 -41 -4 -3 -10 8 -14 23 -28 130 -66 220 -129 308 l-44 63 57 57
c66 66 166 135 249 170 32 14 67 30 78 35 64 30 135 58 135 54 0 -3 -9 -22
-20 -44 -63 -123 -77 -337 -26 -379 64 -53 173 20 281 189 73 112 135 286 135
378 0 30 7 42 22 42 5 0 7 -9 3 -20z m-142 -118 c-22 -85 -96 -228 -156 -301
-70 -87 -81 -89 -73 -16 13 122 64 241 136 316 24 25 93 69 101 64 4 -3 0 -31
-8 -63z m-372 -2257 c109 -110 207 -211 219 -225 12 -14 40 -45 64 -70 86 -91
196 -235 196 -255 0 -12 -46 -3 -93 20 -81 38 -117 74 -222 222 -86 121 -290
392 -394 523 l-35 45 33 -30 c18 -16 122 -120 232 -230z m-1150 -62 c-60 -120
-135 -280 -166 -355 -56 -131 -61 -140 -114 -180 -87 -67 -172 -121 -179 -113
-10 10 62 140 162 294 82 127 395 571 402 571 2 0 -45 -98 -105 -217z m1062
-76 c244 -325 412 -585 393 -604 -3 -3 -43 18 -88 47 l-83 52 -55 112 c-49
100 -191 353 -314 559 -26 43 -42 76 -37 73 5 -4 88 -111 184 -239z m-949 -9
c-19 -79 -36 -154 -38 -168 -3 -14 -16 -81 -29 -150 -14 -69 -28 -147 -32
-175 -7 -59 -17 -70 -106 -131 -82 -56 -101 -54 -88 8 17 76 60 200 114 323
60 137 202 435 208 435 2 0 -11 -64 -29 -142z m861 -128 c168 -293 286 -543
273 -580 -7 -22 -114 45 -189 120 l-75 75 -18 90 c-10 50 -40 178 -67 285 -63
246 -60 235 -50 224 5 -5 62 -101 126 -214z m-1485 107 c0 -2 -12 -14 -27 -28
l-28 -24 24 28 c23 25 31 32 31 24z m1320 -177 c18 -69 34 -138 37 -155 2 -16
8 -46 13 -65 5 -19 12 -53 15 -75 4 -22 11 -60 17 -85 5 -25 12 -93 14 -152 3
-87 1 -108 -10 -108 -25 0 -171 163 -161 180 2 3 6 40 9 81 3 41 8 110 11 154
11 151 13 200 14 279 1 44 3 77 5 75 2 -2 18 -60 36 -129z m-624 -163 c1 -105
4 -235 7 -288 l6 -96 -39 -38 c-30 -29 -43 -36 -51 -28 -12 12 -15 136 -5 215
8 62 24 168 29 193 3 11 8 40 13 65 4 25 8 47 9 50 1 3 5 25 10 50 5 25 10 48
11 53 1 4 2 9 3 12 5 20 6 -18 7 -188z"/>
<path d="M1465 3074 c-10 -10 -12 -21 -7 -31 8 -13 47 -15 253 -18 261 -3 293
-6 479 -36 74 -12 222 -54 262 -75 23 -12 29 -12 42 1 30 30 1 54 -104 88 -68
23 -227 55 -305 62 -38 4 -79 9 -90 12 -11 3 -131 6 -267 8 -213 4 -249 2
-263 -11z"/>
<path d="M1798 2869 c-18 -10 -25 -49 -10 -49 4 -1 106 -3 227 -5 121 -2 234
-6 250 -9 17 -3 53 -7 80 -10 28 -3 71 -8 96 -11 33 -4 49 -2 58 8 21 26 2 44
-52 51 -29 4 -65 9 -82 11 -16 3 -50 7 -75 10 -90 12 -475 15 -492 4z"/>
</g>
</svg>
